<?xml version="1.0" encoding="UTF-8"?>
<!DOCTYPE svg PUBLIC "-//W3C//DTD SVG 1.1//EN" "http://www.w3.org/Graphics/SVG/1.1/DTD/svg11.dtd">
<!-- Creator: CorelDRAW -->
<svg xmlns="http://www.w3.org/2000/svg" xml:space="preserve" width="7.9374mm" height="7.9374mm" style="shape-rendering:geometricPrecision; text-rendering:geometricPrecision; image-rendering:optimizeQuality; fill-rule:evenodd; clip-rule:evenodd"
viewBox="0 0 7.9374 7.9374"
 xmlns:xlink="http://www.w3.org/1999/xlink"
 version="1.1">
 <defs>
  <style type="text/css">
   <![CDATA[
    .fil0 {fill:yellowgreen}
   ]]>
  </style>
 </defs>
 <g id="Réteg_x0020_1">
  <metadata id="CorelCorpID_0Corel-Layer"/>
  <g id="_370872968">
   <g>
    <path id="_370873064" class="fil0" d="M3.9689 0.6971c-1.8069,0 -3.2715,1.4646 -3.2715,3.2716 0,1.3427 0.8096,2.495 1.9665,2.999l0.0426 -0.8258c0,-0.657 -0.4856,-0.4465 -0.4856,-0.9061 0,-0.2576 0.0081,-0.7943 0.0081,-1.1973 0,-1.0738 0.456,-2.1126 0.568,-2.3444 0.1127,-0.2315 0.3777,-0.4841 0.3806,-0.241 0,0.3528 0.015,4.4549 0.015,4.4549l-0.0007 0 0.0502 1.248c0.2343,0.0535 0.4767,0.084 0.7268,0.084 0.1371,0 0.2711,-0.0111 0.404,-0.0275l0.1082 -2.0969c-0.2671,-0.0585 -0.4949,-0.2285 -0.6377,-0.4418 -0.177,-0.2652 0.136,-2.6097 0.136,-2.6097l0.2038 0 0 2.2003 0.2022 0 0 -2.2003 0.2209 0 0 2.2003 0.2015 0 0 -2.2003 0.2294 0 0 2.2003 0.202 0 0 -2.2003 0.1563 0c0,0 0.3127,2.3445 0.1359,2.6097 -0.1416,0.2112 -0.367,0.3807 -0.6308,0.4408 -0.0047,0.0014 -0.009,0.0033 -0.009,0.0033l0.1023 1.9561c1.3041,-0.4301 2.2466,-1.6568 2.2466,-3.1053 -0.0003,-1.807 -1.4649,-3.2716 -3.2716,-3.2716z"/>
    <path id="_370873160" class="fil0" d="M3.9689 0.0896c-2.1388,0 -3.8793,1.7402 -3.8793,3.8791 0,2.1384 1.7405,3.8791 3.8793,3.8791 2.1387,0 3.8789,-1.7407 3.8789,-3.8791 0,-2.1389 -1.7402,-3.8791 -3.8789,-3.8791zm0 7.4689c-1.9796,0 -3.5901,-1.6105 -3.5901,-3.5898 0,-1.9796 1.6105,-3.5901 3.5901,-3.5901 1.9794,0 3.5901,1.6105 3.5901,3.5901 -0.0001,1.9793 -1.6108,3.5898 -3.5901,3.5898z"/>
   </g>
  </g>
  <g id="_370873808">
  </g>
  <g id="_370874336">
  </g>
  <g id="_370874408">
  </g>
  <g id="_370875200">
  </g>
  <g id="_370874936">
  </g>
  <g id="_370876088">
  </g>
  <g id="_370875584">
  </g>
  <g id="_370876544">
  </g>
  <g id="_370876208">
  </g>
  <g id="_370877408">
  </g>
  <g id="_370877384">
  </g>
  <g id="_370877792">
  </g>
  <g id="_370877744">
  </g>
  <g id="_370878560">
  </g>
  <g id="_370879784">
  </g>
 </g>
</svg>
