<?xml version="1.0" encoding="UTF-8"?>
<!DOCTYPE svg PUBLIC "-//W3C//DTD SVG 1.1//EN" "http://www.w3.org/Graphics/SVG/1.1/DTD/svg11.dtd">
<!-- Creator: CorelDRAW -->
<svg xmlns="http://www.w3.org/2000/svg" xml:space="preserve" width="55.5624mm" height="68.7916mm" style="shape-rendering:geometricPrecision; text-rendering:geometricPrecision; image-rendering:optimizeQuality; fill-rule:evenodd; clip-rule:evenodd"
viewBox="0 0 55.5624 68.7916"
 xmlns:xlink="http://www.w3.org/1999/xlink">
 <defs>
  <style type="text/css">
   <![CDATA[
    .str0 {stroke:#2B2A29;stroke-width:0.2646}
    .fil2 {fill:none;fill-rule:nonzero}
    .fil0 {fill:#252422}
    .fil1 {fill:#FEFEFE}
   ]]>
  </style>
 </defs>
 <g id="Réteg_x0020_1">
  <metadata id="CorelCorpID_0Corel-Layer"/>
  <g id="_370908104">
   <path id="_372006232" class="fil0" d="M0.5742 3.6611l8.5906 0.4492c0.1831,2.6946 -1.2139,4.7052 -2.4837,6.6101l-4.1285 -0.2158c-1.4478,-2.3224 -2.3879,-4.6183 -1.9784,-6.8435z"/>
   <path id="_372006808" class="fil0" d="M38.8239 26.8007l0 0c-0.0595,0.0105 -0.1231,-0.0016 -0.1769,-0.0394 -0.0534,-0.0374 -0.0869,-0.0933 -0.0975,-0.1531 -0.0105,-0.0598 0.0017,-0.1237 0.0393,-0.1772l0.7545 -1.078 0.3888 0.272 -0.7546 1.078c-0.0374,0.0536 -0.0932,0.0872 -0.1525,0.0976l-0.0011 0.0001zm-0.4359 0.3307c0.1546,0.1083 0.3399,0.1434 0.514,0.1128l0.0006 0 0.0005 -0.0002c0.1743,-0.031 0.3363,-0.1274 0.4445,-0.282l0.8839 -1.2632 0.1295 -0.1848 -0.1848 -0.1294 -0.7591 -0.5312 -0.1851 -0.1297 -0.1295 0.1852 -0.8838 1.2629c-0.1084,0.1551 -0.1437,0.3404 -0.1129,0.5142l0.0001 0.0011c0.0308,0.1738 0.1272,0.336 0.2821,0.4443z"/>
   <path id="_372006400" class="fil0" d="M31.3474 19.7442c2.5163,-3.1642 4.8424,-6.3313 5.3334,-10.4997 0.1657,-1.4083 1.0539,-5.6727 3.0547,-4.2118 1.3121,0.9343 0.9806,2.9601 0.9348,3.8196 -0.0601,1.133 0.8572,0.3397 1.2326,-0.0246 0.5518,-0.536 1.1128,-1.2812 1.7211,-1.9482 2.0125,-2.2071 4.7341,-2.9052 6.677,-1.1059 2.2909,2.1214 1.6887,4.485 0.1688,6.912 -1.3672,2.1838 -3.1653,4.4226 -5.0053,6.6314 -1.8747,2.2502 -3.7925,4.4695 -5.3435,6.5685 -2.9245,-2.047 -5.8491,-4.0941 -8.7736,-6.1413z"/>
   <path id="_372006352" class="fil1" d="M33.227 18.3831l0 0 0.202 -0.0356 -0.0713 -0.4037 -0.2019 0.0357 0.0712 0.4036zm0.178 1.0092l0 0 0.2019 -0.0357 -0.0711 -0.4038 -0.2021 0.0357 0.0713 0.4038zm0.1783 1.0089l0 0 0.2018 -0.0356 -0.0714 -0.4037 -0.2016 0.0357 0.0712 0.4036zm0.178 1.009l0 0 0.2018 -0.0356 -0.0713 -0.4036 -0.2017 0.0357 0.0712 0.4035zm-0.5858 -4.0584c0.0206,-0.0289 0.0414,-0.058 0.0621,-0.0869l0.0132 0.0735 -0.0753 0.0134z"/>
   <path id="_372006688" class="fil1" d="M35.1144 14.9285l0 0 0.2019 -0.0356 -0.0714 -0.4035 -0.2018 0.0355 0.0713 0.4036zm0.1783 1.009l0 0 0.2016 -0.0355 -0.0712 -0.4037 -0.2018 0.0357 0.0714 0.4035zm0.1778 1.0091l0 0 0.2018 -0.0355 -0.071 -0.4036 -0.2021 0.0355 0.0713 0.4036zm0.1782 1.0093l0 0 0.2019 -0.0358 -0.0714 -0.4037 -0.2018 0.0357 0.0713 0.4038zm0.1781 1.0088l0 0 0.202 -0.0357 -0.0714 -0.4036 -0.2018 0.0358 0.0712 0.4035zm0.1782 1.0091l0 0 0.2016 -0.0357 -0.0713 -0.4034 -0.2015 0.0355 0.0712 0.4036zm0.1778 1.0089l0 0 0.202 -0.0356 -0.0713 -0.4035 -0.2018 0.0353 0.0711 0.4038zm0.1784 1.0091l0 0 0.2017 -0.0357 -0.0712 -0.4036 -0.2018 0.0357 0.0713 0.4036zm0.178 1.0092l0 0 0.2019 -0.0357 -0.0712 -0.4037 -0.2018 0.0356 0.0711 0.4038zm0.3135 0.5969l-0.032 -0.0225 0.0274 -0.0048 0.0046 0.0273z"/>
   <path id="_372006184" class="fil1" d="M36.8235 10.465l0 0 0.202 -0.0356 -0.0714 -0.4037 -0.2018 0.0357 0.0712 0.4036zm0.1782 1.0089l0 0 0.2018 -0.0357 -0.0713 -0.4036 -0.2017 0.0357 0.0712 0.4036zm0.1782 1.0092l0 0 0.2018 -0.0357 -0.0712 -0.4037 -0.2018 0.0357 0.0712 0.4037zm0.1782 1.0089l0 0 0.2015 -0.0356 -0.0712 -0.4035 -0.2016 0.0357 0.0713 0.4034zm0.1779 1.009l0 0 0.2018 -0.0356 -0.0712 -0.4036 -0.2017 0.0357 0.0711 0.4035zm0.1781 1.0091l0 0 0.2019 -0.0357 -0.0714 -0.4037 -0.2018 0.0357 0.0713 0.4037zm0.1783 1.0091l0 0 0.2018 -0.0356 -0.0713 -0.4037 -0.2019 0.0357 0.0714 0.4036zm0.1778 1.0089l0 0 0.2019 -0.0357 -0.0711 -0.4034 -0.2019 0.0355 0.0711 0.4036zm0.1783 1.0091l0 0 0.2018 -0.0356 -0.0714 -0.4037 -0.2016 0.0357 0.0712 0.4036zm0.178 1.0092l0 0 0.202 -0.0357 -0.0714 -0.4037 -0.2018 0.0357 0.0712 0.4037zm0.1782 1.0089l0 0 0.2019 -0.0357 -0.0713 -0.4034 -0.2018 0.0355 0.0712 0.4036zm0.1781 1.0089l0 0 0.2016 -0.0356 -0.0708 -0.4035 -0.2019 0.0355 0.0711 0.4036zm0.1782 1.0092l0 0 0.2016 -0.0357 -0.0712 -0.4037 -0.2018 0.0355 0.0714 0.4039zm0.178 1.0091l0 0 0.202 -0.0357 -0.0713 -0.4038 -0.202 0.0358 0.0713 0.4037zm0.1782 1.0087l0 0 0.2019 -0.0353 -0.0713 -0.4038 -0.2019 0.0359 0.0713 0.4032zm0.3526 0.9783l0 0 -0.2053 -0.1437 -0.0404 -0.2291 0.2018 -0.0355 0.0713 0.4035 -0.0274 0.0048zm-3.0156 -16.1151c0.0092,-0.0697 0.0181,-0.1397 0.0266,-0.2099 0.0076,-0.0661 0.0172,-0.1382 0.0281,-0.216l0.067 -0.0119 0.0713 0.4036 -0.193 0.0342z"/>
   <path id="_372006904" class="fil1" d="M38.5327 6.0013l0 0 0.2022 -0.0356 -0.0714 -0.4036 -0.2018 0.0356 0.071 0.4036zm0.1782 1.0091l0 0 0.2018 -0.0357 -0.0713 -0.4034 -0.2018 0.0355 0.0713 0.4036zm0.1781 1.0091l0 0 0.202 -0.0357 -0.0714 -0.4036 -0.2017 0.0357 0.0711 0.4036zm0.1782 1.009l0 0 0.2018 -0.0355 -0.0713 -0.4037 -0.2017 0.0355 0.0712 0.4037zm0.1782 1.0089l0 0 0.2018 -0.0355 -0.0714 -0.4036 -0.2016 0.0355 0.0712 0.4036zm0.178 1.0091l0 0 0.2016 -0.0356 -0.0708 -0.4035 -0.2018 0.0355 0.071 0.4036zm0.1782 1.0091l0 0 0.2017 -0.0358 -0.0712 -0.4035 -0.2019 0.0357 0.0714 0.4036zm0.178 1.009l0 0 0.2017 -0.0355 -0.071 -0.4038 -0.2018 0.0358 0.0711 0.4035zm0.1783 1.0089l0 0 0.2018 -0.0355 -0.0712 -0.4036 -0.202 0.0355 0.0714 0.4036zm0.1778 1.0091l0 0 0.2022 -0.0355 -0.0714 -0.4038 -0.2018 0.0357 0.071 0.4036zm0.1782 1.0092l0 0 0.2018 -0.0357 -0.0713 -0.4036 -0.2018 0.0355 0.0713 0.4038zm0.1782 1.0089l0 0 0.2019 -0.0356 -0.0714 -0.4036 -0.2016 0.0357 0.0711 0.4035zm0.1781 1.0091l0 0 0.2019 -0.0357 -0.0713 -0.4036 -0.2018 0.0355 0.0712 0.4038zm0.1778 1.009l0 0 0.202 -0.0355 -0.0712 -0.4037 -0.2016 0.0355 0.0708 0.4037zm0.1784 1.0091l0 0 0.2018 -0.0357 -0.0713 -0.4036 -0.2018 0.0357 0.0713 0.4036zm0.1782 1.0089l0 0 0.2017 -0.0357 -0.0712 -0.4034 -0.2018 0.0355 0.0713 0.4036zm0.1781 1.0091l0 0 0.2018 -0.0356 -0.0712 -0.4035 -0.202 0.0355 0.0714 0.4036zm0.1782 1.009l0 0 0.2016 -0.0357 -0.0714 -0.4035 -0.2016 0.0356 0.0714 0.4036zm0.2269 0.5843l0 0 -0.1018 0.126 -0.0186 -0.1048 0.1204 -0.0212zm-3.4427 -18.8021c0.0608,-0.0434 0.1237,-0.0803 0.1884,-0.1107l0.023 0.1302 -0.2017 0.0355 -0.0097 -0.055z"/>
   <path id="_372006880" class="fil1" d="M41.667 9.61l0 0 0.2017 -0.0355 -0.0712 -0.4038 -0.2018 0.0357 0.0713 0.4036zm0.1781 1.0089l0 0 0.2018 -0.0357 -0.0712 -0.4032 -0.2018 0.0355 0.0712 0.4034zm0.1782 1.0091l0 0 0.2015 -0.0356 -0.0708 -0.4035 -0.202 0.0355 0.0713 0.4036zm0.1782 1.0092l0 0 0.2017 -0.0357 -0.0714 -0.4037 -0.2016 0.0356 0.0713 0.4038zm0.1779 1.0089l0 0 0.2018 -0.0355 -0.0711 -0.4036 -0.2017 0.0356 0.071 0.4035zm0.1782 1.0091l0 0 0.2018 -0.0356 -0.0713 -0.4037 -0.2018 0.0357 0.0713 0.4036zm0.1779 1.009l0 0 0.2018 -0.0357 -0.071 -0.4037 -0.202 0.0357 0.0712 0.4037zm0.1782 1.0092l0 0 0.2018 -0.0356 -0.0714 -0.4038 -0.2016 0.0356 0.0712 0.4038zm0.1782 1.0088l0 0 0.2018 -0.0355 -0.0713 -0.4036 -0.2017 0.0357 0.0712 0.4034zm0.1782 1.009l0 0 0.2018 -0.0356 -0.0712 -0.4036 -0.202 0.0357 0.0714 0.4035zm0.1779 1.0091l0 0 0.2019 -0.0355 -0.0711 -0.4036 -0.2018 0.0354 0.071 0.4037zm0.1782 1.0091l0 0 0.2016 -0.0356 -0.0712 -0.4037 -0.2018 0.0357 0.0714 0.4036zm0.1744 0.5936l-0.0575 0.0685 -0.0101 -0.0566 0.0676 -0.0119z"/>
   <path id="_370910648" class="fil1" d="M43.9106 8.1736l0 0 0.2018 -0.0359 -0.0712 -0.4034 -0.2018 0.0357 0.0712 0.4036zm0.178 1.009l0 0 0.202 -0.0357 -0.0712 -0.4036 -0.2018 0.0356 0.071 0.4037zm0.1782 1.0089l0 0 0.2017 -0.0355 -0.0712 -0.4037 -0.2019 0.0357 0.0714 0.4035zm0.1782 1.0093l0 0 0.2017 -0.0359 -0.0712 -0.4036 -0.2018 0.0357 0.0713 0.4038zm0.178 1.0089l0 0 0.2018 -0.0356 -0.0713 -0.4037 -0.2018 0.0357 0.0713 0.4036zm0.1779 1.009l0 0 0.2018 -0.0357 -0.071 -0.4035 -0.2018 0.0357 0.071 0.4035zm0.1782 1.0089l0 0 0.2022 -0.0355 -0.0714 -0.4036 -0.202 0.0356 0.0712 0.4035zm0.1782 1.0091l0 0 0.2019 -0.0356 -0.0714 -0.4037 -0.2017 0.0357 0.0712 0.4036zm0.1781 1.0092l0 0 0.2017 -0.0357 -0.0711 -0.4037 -0.2016 0.0357 0.071 0.4037zm0.1783 1.0089l0 0 0.2017 -0.0357 -0.0712 -0.4036 -0.2018 0.0357 0.0713 0.4036zm0.1779 1.0091l0 0 0.2019 -0.0358 -0.0712 -0.4035 -0.202 0.0357 0.0713 0.4036zm0.1515 0.5975l0 0 -0.038 0.0456 -0.0066 -0.0378 0.0446 -0.0078zm-2.1704 -12.0347c0.0255,-0.0273 0.0509,-0.0546 0.0766,-0.0814l0.1137 -0.02 0.0712 0.4037 -0.2019 0.0353 -0.0596 -0.3376z"/>
   <path id="_370908896" class="fil1" d="M45.9761 5.7279l0 0 0.2019 -0.0357 -0.0713 -0.4036 -0.2017 0.0357 0.0711 0.4036zm0.1781 1.009l0 0 0.2019 -0.0357 -0.0714 -0.4034 -0.2016 0.0356 0.0711 0.4035zm0.1781 1.0091l0 0 0.2018 -0.0357 -0.0712 -0.4033 -0.202 0.0354 0.0714 0.4036zm0.1782 1.0092l0 0 0.2016 -0.0357 -0.0712 -0.4037 -0.2018 0.0357 0.0714 0.4037zm0.178 1.009l0 0 0.2017 -0.0358 -0.071 -0.4036 -0.2019 0.0356 0.0712 0.4038zm0.1782 1.0088l0 0 0.2017 -0.0355 -0.0714 -0.4036 -0.2016 0.0356 0.0713 0.4035zm0.1781 1.0091l0 0 0.2018 -0.0357 -0.0713 -0.4034 -0.2021 0.0355 0.0716 0.4036zm0.178 1.0092l0 0 0.2018 -0.0357 -0.0712 -0.4036 -0.2018 0.0354 0.0712 0.4039zm0.1782 1.0091l0 0 0.2015 -0.0357 -0.071 -0.4037 -0.2017 0.0356 0.0712 0.4038zm0.1779 1.0089l0 0 0.2018 -0.0355 -0.071 -0.4036 -0.202 0.0356 0.0712 0.4035zm0.1783 1.0091l0.2017 -0.0358 -0.0712 -0.4035 -0.2018 0.0355 0.0713 0.4038z"/>
   <path id="_370915400" class="fil1" d="M48.3975 5.3005l0 0 0.202 -0.0357 -0.0713 -0.4036 -0.2017 0.0358 0.071 0.4035zm0.1784 1.009l0 0 0.2017 -0.0357 -0.071 -0.4035 -0.202 0.0355 0.0713 0.4037zm0.1782 1.0091l0 0 0.2017 -0.0357 -0.0712 -0.4036 -0.2018 0.0356 0.0713 0.4037zm0.1779 1.0091l0 0 0.2017 -0.0357 -0.0709 -0.4036 -0.2021 0.0355 0.0713 0.4038zm0.1782 1.009l0 0 0.2018 -0.0357 -0.0713 -0.4035 -0.2018 0.0355 0.0713 0.4037zm0.1781 1.009l0 0 0.202 -0.0356 -0.0714 -0.4036 -0.2018 0.0356 0.0712 0.4036zm0.1782 1.009l0 0 0.2018 -0.0357 -0.0713 -0.4036 -0.2019 0.0358 0.0714 0.4035zm0.1778 1.009l0 0 0.2022 -0.0355 -0.0713 -0.4037 -0.2017 0.0357 0.0708 0.4035zm0.1782 1.0091l0.2019 -0.0357 -0.0714 -0.4036 -0.2013 0.0356 0.0708 0.4037z"/>
   <path id="_370915304" class="fil1" d="M51.3539 7.8999l0 0 0.2018 -0.0353 -0.0713 -0.4036 -0.2019 0.0355 0.0714 0.4034zm0.178 1.0093l0 0 0.202 -0.0358 -0.0713 -0.4033 -0.202 0.0355 0.0713 0.4036zm0.2487 0.5804l0 0c-0.0183,0.1381 -0.0426,0.2768 -0.073,0.4159l-0.0688 -0.391 0.1418 -0.0249zm-0.6285 -2.7319c0.0274,0.041 0.0539,0.0823 0.0797,0.1236l-0.0561 0.01 -0.0236 -0.1336z"/>
   <polygon id="_370915328" class="fil1" points="39.6972,25.5648 39.6612,25.363 40.0649,25.2919 40.1006,25.4937 "/>
   <path id="_370915184" class="fil1" d="M42.2967 22.6089l0 0 -0.0357 -0.2019 0.4036 -0.0713 0.0355 0.2019 -0.4034 0.0713zm-1.0088 0.178l0 0 -0.0357 -0.202 0.4033 -0.0711 0.0356 0.2019 -0.4032 0.0712zm-1.0093 0.1781l0 0 -0.0357 -0.2017 0.4038 -0.0712 0.0357 0.2017 -0.4038 0.0712zm-1.0089 0.178l0 0 -0.0357 -0.2017 0.4035 -0.0711 0.0356 0.2016 -0.4034 0.0712zm-1.009 0.1782l0 0 -0.0356 -0.2016 0.4034 -0.0714 0.0356 0.2019 -0.4034 0.0711zm-1.0093 0.1782l0 0 -0.0355 -0.202 0.4038 -0.071 0.0355 0.2017 -0.4038 0.0713zm-0.6362 -0.0677l-0.0319 -0.0225 0.0272 -0.0049 0.0047 0.0274z"/>
   <path id="_370915112" class="fil1" d="M43.8874 19.831l0 0 -0.0358 -0.2019 0.4038 -0.0713 0.0357 0.202 -0.4037 0.0712zm-1.009 0.178l0 0 -0.0356 -0.2017 0.4035 -0.0713 0.0357 0.2018 -0.4036 0.0712zm-1.0092 0.1782l0 0 -0.0357 -0.2018 0.4039 -0.0714 0.0355 0.2018 -0.4037 0.0714zm-1.0091 0.1782l0 0 -0.0355 -0.202 0.4036 -0.0712 0.0355 0.2018 -0.4036 0.0714zm-1.0091 0.178l0 0 -0.0355 -0.202 0.4036 -0.0712 0.0357 0.2021 -0.4038 0.0711zm-1.0088 0.1781l0 0 -0.0356 -0.202 0.4034 -0.071 0.0356 0.2018 -0.4034 0.0712zm-1.009 0.178l0 0 -0.0358 -0.2016 0.4036 -0.0714 0.0357 0.2018 -0.4035 0.0712zm-1.0092 0.1782l0 0 -0.0357 -0.2018 0.4038 -0.0712 0.0357 0.2016 -0.4038 0.0714zm-1.009 0.1782l0 0 -0.0354 -0.202 0.4032 -0.0712 0.0357 0.2019 -0.4035 0.0713zm-1.0091 0.1781l0 0 -0.0357 -0.2019 0.4038 -0.0713 0.0357 0.2019 -0.4038 0.0713zm-0.8342 0.1471l0 0 -0.2056 -0.1437 -0.0048 -0.0272 0.4037 -0.0712 0.0356 0.2018 -0.2289 0.0403zm11.3183 -2.0552l-0.056 0.0672 -0.3378 0.0596 -0.0357 -0.2016 0.4039 -0.0714 0.0256 0.1462z"/>
   <path id="_370915280" class="fil1" d="M46.4869 16.8749l0 0 -0.0357 -0.2018 0.4038 -0.0713 0.0355 0.202 -0.4036 0.0711zm-1.0088 0.1781l0 0 -0.0357 -0.2018 0.4033 -0.0711 0.0357 0.2015 -0.4033 0.0714zm-1.0093 0.178l0 0 -0.0355 -0.2016 0.4036 -0.0714 0.0357 0.2019 -0.4038 0.0711zm-1.0089 0.1782l0 0 -0.0357 -0.2018 0.4036 -0.0713 0.0355 0.2018 -0.4034 0.0713zm-1.0088 0.178l0 0 -0.0358 -0.2016 0.4034 -0.0713 0.0357 0.2018 -0.4033 0.0711zm-1.0095 0.1783l0 0 -0.0357 -0.2019 0.404 -0.0713 0.0357 0.2018 -0.404 0.0714zm-1.0087 0.178l0 0 -0.0357 -0.2018 0.4035 -0.0712 0.0354 0.2018 -0.4032 0.0712zm-1.0093 0.1782l0 0 -0.0355 -0.2018 0.4036 -0.0712 0.0357 0.2017 -0.4038 0.0713zm-1.009 0.178l0 0 -0.0357 -0.2018 0.4039 -0.0711 0.0353 0.2018 -0.4035 0.0711zm-1.0091 0.1781l0 0 -0.0354 -0.2017 0.4034 -0.0713 0.0356 0.202 -0.4036 0.071zm-1.009 0.1782l0 0 -0.0353 -0.2019 0.4035 -0.0711 0.0357 0.2018 -0.4039 0.0712zm-1.0089 0.178l0 0 -0.0357 -0.2018 0.4037 -0.071 0.0355 0.2015 -0.4035 0.0713zm-1.0091 0.1782l0 0 -0.0354 -0.2018 0.4034 -0.0713 0.0356 0.2018 -0.4036 0.0713zm-1.0091 0.1782l0 0 -0.0357 -0.2019 0.404 -0.0714 0.0356 0.202 -0.4039 0.0713zm-1.0091 0.1781l0 0 -0.0354 -0.2019 0.4034 -0.0711 0.0358 0.2017 -0.4038 0.0713zm15.4415 -2.9339l0 0c-0.0625,0.0806 -0.1258,0.1611 -0.1891,0.2417l-0.1169 0.0205 -0.0353 -0.2019 0.3413 -0.0603zm-16.2729 3.0805c0.0639,-0.0804 0.1273,-0.1606 0.1906,-0.2411l0.0356 0.2012 -0.2262 0.0399z"/>
   <path id="_370914464" class="fil1" d="M49.0864 13.9188l0 0 -0.0353 -0.2019 0.4035 -0.0711 0.0357 0.2018 -0.4039 0.0712zm-1.0089 0.1782l0 0 -0.0357 -0.2018 0.4038 -0.0712 0.0354 0.2018 -0.4035 0.0712zm-1.0088 0.178l0 0 -0.0357 -0.2016 0.4034 -0.0714 0.0358 0.2017 -0.4035 0.0713zm-1.0093 0.1782l0 0 -0.0356 -0.2018 0.4038 -0.0712 0.0357 0.2017 -0.4039 0.0713zm-1.0089 0.1782l0 0 -0.0357 -0.202 0.4036 -0.0711 0.0356 0.2016 -0.4035 0.0715zm-1.0093 0.178l0 0 -0.0352 -0.2017 0.4033 -0.0714 0.0357 0.2018 -0.4038 0.0713zm-1.0088 0.1781l0 0 -0.0356 -0.2018 0.4037 -0.0712 0.0353 0.2016 -0.4034 0.0714zm-1.009 0.1782l0 0 -0.0358 -0.202 0.4037 -0.0712 0.0357 0.2019 -0.4036 0.0713zm-1.0092 0.1781l0 0 -0.0355 -0.2019 0.4036 -0.0712 0.0357 0.2019 -0.4038 0.0712zm-1.009 0.178l0 0 -0.0356 -0.2018 0.4036 -0.0712 0.0355 0.2018 -0.4035 0.0712zm-1.0087 0.178l0 0 -0.036 -0.2018 0.4038 -0.071 0.0355 0.2018 -0.4033 0.071zm-1.0093 0.1783l0 0 -0.0357 -0.2019 0.4038 -0.0712 0.0357 0.2017 -0.4038 0.0714zm-1.009 0.178l0 0 -0.0356 -0.2017 0.4034 -0.0713 0.0357 0.2018 -0.4035 0.0712zm-1.0091 0.1782l0 0 -0.0357 -0.2018 0.4037 -0.0714 0.0357 0.202 -0.4037 0.0712zm-1.0089 0.1782l0 0 -0.0357 -0.202 0.4035 -0.071 0.0358 0.2017 -0.4036 0.0713zm-1.0092 0.1781l-0.0356 -0.2019 0.4036 -0.0713 0.0357 0.2018 -0.4037 0.0714z"/>
   <path id="_370914224" class="fil1" d="M50.6771 11.141l0 0 -0.0357 -0.2018 0.4038 -0.0712 0.0357 0.2018 -0.4038 0.0712zm-1.0088 0.178l0 0 -0.0357 -0.2018 0.4033 -0.0712 0.036 0.2018 -0.4036 0.0712zm-1.0092 0.1782l0 0 -0.0354 -0.202 0.4035 -0.0711 0.0356 0.2019 -0.4037 0.0712zm-1.009 0.1781l0 0 -0.0357 -0.2018 0.4038 -0.0714 0.0355 0.2018 -0.4036 0.0714zm-1.009 0.1782l0 0 -0.0356 -0.202 0.4034 -0.0712 0.0359 0.2018 -0.4037 0.0714zm-1.0092 0.1781l0 0 -0.0356 -0.2019 0.4037 -0.0714 0.0358 0.2019 -0.4039 0.0714zm-1.0089 0.1781l0 0 -0.0357 -0.2018 0.4037 -0.0713 0.0353 0.2018 -0.4033 0.0713zm-1.0091 0.1781l0 0 -0.0354 -0.2018 0.4034 -0.0712 0.0357 0.2016 -0.4037 0.0714zm-1.009 0.178l0 0 -0.0357 -0.2018 0.4038 -0.0712 0.0357 0.2019 -0.4038 0.0711zm-1.0089 0.1782l0 0 -0.0357 -0.202 0.4034 -0.0711 0.0357 0.2018 -0.4034 0.0713zm-1.0093 0.1781l0 0 -0.0354 -0.202 0.4036 -0.071 0.0357 0.2016 -0.4039 0.0714zm-1.0089 0.178l0 0 -0.0357 -0.2018 0.4037 -0.0713 0.0355 0.2021 -0.4035 0.071zm-1.0091 0.178l0 0 -0.0355 -0.2016 0.4035 -0.0712 0.0357 0.2018 -0.4037 0.071zm-1.0091 0.1783l0 0 -0.0355 -0.2019 0.4034 -0.071 0.0359 0.2017 -0.4038 0.0712zm-1.0088 0.178l0 0 -0.0357 -0.2017 0.4035 -0.0713 0.0355 0.2018 -0.4033 0.0712zm-1.0091 0.1782l-0.0356 -0.2018 0.4036 -0.0714 0.0357 0.202 -0.4037 0.0712z"/>
   <path id="_370914416" class="fil1" d="M51.2589 8.5411l0 0 -0.0357 -0.2018 0.4034 -0.0712 0.0356 0.2018 -0.4033 0.0712zm-1.0093 0.1782l0 0 -0.0354 -0.202 0.4036 -0.071 0.0356 0.2016 -0.4038 0.0714zm-1.0089 0.1782l0 0 -0.0357 -0.202 0.4037 -0.0711 0.0355 0.2018 -0.4035 0.0713zm-1.0091 0.1781l0 0 -0.0357 -0.2019 0.4036 -0.0713 0.0357 0.2018 -0.4036 0.0714zm-1.009 0.178l0 0 -0.0356 -0.2018 0.4038 -0.0714 0.0356 0.202 -0.4038 0.0712zm-1.0089 0.1782l0 0 -0.0357 -0.2018 0.4037 -0.0714 0.0355 0.2018 -0.4035 0.0714zm-1.0093 0.178l0 0 -0.0355 -0.2018 0.4036 -0.0711 0.0357 0.2016 -0.4038 0.0713zm-1.009 0.1782l0 0 -0.0356 -0.2019 0.4036 -0.0713 0.0359 0.2019 -0.4039 0.0713zm-1.009 0.1781l0 0 -0.0354 -0.2019 0.4033 -0.0711 0.0357 0.2016 -0.4036 0.0714zm-1.009 0.1782l0 0 -0.0355 -0.2018 0.4036 -0.0714 0.0357 0.2018 -0.4038 0.0714zm-1.009 0.1778l0 0 -0.0356 -0.2016 0.4034 -0.0712 0.0357 0.2018 -0.4035 0.071zm-1.009 0.1782l0 0 -0.0354 -0.2017 0.4033 -0.0713 0.0357 0.2019 -0.4036 0.0711zm-1.009 0.1781l0 0 -0.0357 -0.2019 0.4035 -0.0711 0.036 0.202 -0.4038 0.071zm-1.009 0.178l0 0 -0.0358 -0.2016 0.4037 -0.0714 0.0356 0.202 -0.4035 0.071zm-1.0092 0.1782l0 0 -0.0356 -0.2018 0.4037 -0.0712 0.0355 0.2018 -0.4036 0.0712zm-0.8237 0.1454c0.0195,-0.0724 0.0387,-0.145 0.0566,-0.218l0.1264 -0.0223 0.0352 0.2018 -0.2182 0.0385z"/>
   <path id="_370914272" class="fil1" d="M49.8221 6.2976l0 0 -0.0352 -0.2019 0.4033 -0.0713 0.0357 0.202 -0.4038 0.0712zm-1.0088 0.178l0 0 -0.0357 -0.2018 0.4038 -0.0712 0.0355 0.2016 -0.4036 0.0714zm-1.009 0.1783l0 0 -0.0356 -0.2019 0.4036 -0.0714 0.0355 0.2019 -0.4035 0.0714zm-1.0092 0.178l0 0 -0.0357 -0.2018 0.4038 -0.0713 0.0357 0.2017 -0.4038 0.0714zm-1.0088 0.1782l0 0 -0.0357 -0.2018 0.4033 -0.0714 0.0357 0.2018 -0.4033 0.0714zm-1.0092 0.178l0 0 -0.0355 -0.2018 0.4035 -0.0712 0.0357 0.2017 -0.4037 0.0713zm-1.0091 0.1781l0 0 -0.0357 -0.202 0.4039 -0.0711 0.0355 0.2019 -0.4037 0.0712zm-4.0361 0.7124l0 0 -0.0356 -0.2018 0.4036 -0.0712 0.0356 0.2019 -0.4036 0.0711zm-1.0091 0.1782l0 0 -0.0355 -0.2018 0.4035 -0.0713 0.0358 0.2018 -0.4038 0.0713zm-1.0088 0.1781l0 0 -0.036 -0.2018 0.4037 -0.0712 0.0356 0.202 -0.4033 0.071zm5.3814 -0.9498l0 0 0.0576 -0.0679 0.0096 0.0558 -0.0672 0.0121zm-2.3557 0.2076l0 0c-0.001,0.0591 -0.0025,0.1172 -0.0046,0.1746l-0.0298 -0.1687 0.0344 -0.0059zm-3.9624 0.9075c0.0122,-0.0697 0.0257,-0.1415 0.04,-0.215l0.2556 -0.0453 0.0356 0.2018 -0.3312 0.0585z"/>
   <path id="_370914848" class="fil1" d="M39.3043 5.6569l0 0 -0.0357 -0.2018 0.4037 -0.0712 0.0357 0.2019 -0.4037 0.0711zm-1.0089 0.178l0 0 -0.0356 -0.2015 0.4037 -0.0713 0.0354 0.2017 -0.4035 0.0711zm-0.7282 0.1287c0.0306,-0.0624 0.0621,-0.1233 0.0944,-0.1826l0.0283 0.1609 -0.1227 0.0217z"/>
   <path id="_370914824" class="fil1" d="M38.6701 19.9517l-0.6293 -3.5646c-0.0546,-0.3089 0.1535,-0.606 0.4622,-0.6607l3.5649 -0.629c0.3088,-0.0546 0.6061,0.1534 0.6605,0.4622l0.6294 3.5646c0.0543,0.3089 -0.1536,0.6062 -0.4623,0.6605l-3.5651 0.6293c-0.3087,0.0546 -0.606,-0.1535 -0.6603,-0.4623z"/>
   <path id="_370914680" class="fil1" d="M38.8599 19.7464l-0.5705 -3.2313c-0.0492,-0.28 0.1392,-0.5493 0.4192,-0.5987l3.2315 -0.5705c0.2796,-0.0492 0.5491,0.1392 0.5985,0.419l0.5705 3.2313c0.0492,0.2799 -0.1393,0.5495 -0.4191,0.5987l-3.2316 0.5706c-0.2797,0.0494 -0.5493,-0.1393 -0.5985,-0.4191z"/>
   <path id="_370914344" class="fil0" d="M38.7758 19.0005l-0.0814 -0.4609 -0.0921 0.0161 0.0814 0.4612 0.0921 -0.0164zm-0.1301 -0.7376l-0.0815 -0.4609 -0.0923 0.0161 0.0814 0.4612 0.0924 -0.0164zm-0.1303 -0.7375l-0.0815 -0.4612 -0.0921 0.0164 0.0814 0.4609 0.0922 -0.0161zm-0.1302 -0.7378l-0.0497 -0.2808c-0.0048,-0.0273 -0.0071,-0.0543 -0.0071,-0.0811 0,-0.0286 0.0026,-0.0568 0.0077,-0.0842l-0.0921 -0.017c-0.0059,0.033 -0.0093,0.0669 -0.0093,0.1012 0.0001,0.0322 0.0029,0.0648 0.0086,0.0975l0.0496 0.2807 0.0923 -0.0163zm0.0614 -0.6732c0.0683,-0.0773 0.1615,-0.1328 0.2702,-0.1519l0.1188 -0.021 -0.0164 -0.0924 -0.1187 0.021c-0.1303,0.0231 -0.2426,0.0899 -0.324,0.1824l0.0701 0.0619zm0.6656 -0.2218l0.461 -0.0814 -0.0162 -0.0922 -0.4611 0.0815 0.0163 0.0921zm0.7376 -0.1302l0.4612 -0.0814 -0.0164 -0.0922 -0.4609 0.0815 0.0161 0.0921zm0.7376 -0.1301l0.4611 -0.0814 -0.0163 -0.0922 -0.4609 0.0813 0.0161 0.0923zm0.7378 -0.1303l0.4609 -0.0813 -0.0162 -0.0923 -0.4611 0.0814 0.0164 0.0922zm0.7283 -0.1165c0.1449,0.0075 0.278,0.083 0.3604,0.1991l0.0763 -0.0542c-0.0987,-0.1393 -0.2575,-0.2292 -0.4317,-0.2383l-0.005 0.0934zm0.4484 0.441l0.0814 0.461 0.0922 -0.0162 -0.0814 -0.4611 -0.0922 0.0163zm0.1302 0.7376l0.0814 0.4612 0.0922 -0.0164 -0.0813 -0.461 -0.0923 0.0162zm0.1303 0.7378l0.0814 0.461 0.0921 -0.0164 -0.0813 -0.461 -0.0922 0.0164zm0.1301 0.7375l0.0815 0.461 0.0921 -0.0162 -0.0812 -0.4611 -0.0924 0.0163zm0.1303 0.7377l0.0402 0.2272c0.0048,0.0273 0.0071,0.0544 0.0071,0.0813 0,0.0454 -0.0068,0.0898 -0.0194,0.1323l0.0899 0.0265c0.015,-0.0508 0.0231,-0.1043 0.0231,-0.1588 0.0001,-0.0322 -0.0028,-0.0647 -0.0086,-0.0975l-0.0401 -0.2272 -0.0922 0.0162zm-0.1055 0.6551c-0.0639,0.0588 -0.1442,0.1006 -0.2354,0.1166l-0.1724 0.0306 0.0162 0.0922 0.1725 -0.0304c0.1093,-0.0194 0.2062,-0.0697 0.2825,-0.1401l-0.0634 -0.0689zm-0.6844 0.1959l-0.4611 0.0814 0.0163 0.0922 0.461 -0.0815 -0.0162 -0.0921zm-0.7378 0.1303l-0.4609 0.0813 0.0163 0.0923 0.461 -0.0814 -0.0164 -0.0922zm-0.7376 0.1301l-0.4609 0.0815 0.0162 0.0921 0.4611 -0.0814 -0.0164 -0.0922zm-0.7376 0.1304l-0.4611 0.0812 0.0163 0.0924 0.461 -0.0814 -0.0162 -0.0922zm-0.724 0.1019c-0.1417,-0.0227 -0.2674,-0.1103 -0.3376,-0.2355l-0.0816 0.0457c0.0843,0.1505 0.234,0.255 0.4045,0.2823l0.0147 -0.0925zm-0.3898 -0.3825l-0.0814 -0.4611 -0.0923 0.0163 0.0814 0.461 0.0923 -0.0162z"/>
   <path id="_370914248" class="fil0" d="M38.7633 18.0811c-0.0787,-0.3623 0.1512,-0.7201 0.5138,-0.7987 0.2426,-0.0529 0.4827,0.0329 0.6391,0.2038 -0.0482,0.1296 -0.0608,0.2742 -0.0295,0.419 0.0252,0.1164 0.0763,0.2205 0.1459,0.3077 -0.0843,0.1881 -0.2538,0.3349 -0.4705,0.3818 -0.3623,0.0791 -0.7199,-0.1509 -0.7988,-0.5136z"/>
   <path id="_370914584" class="fil0" d="M40.3334 19.5981c-0.3674,-0.0501 -0.625,-0.3886 -0.5747,-0.7559 0.0318,-0.2352 0.1819,-0.4255 0.3823,-0.519 0.1713,0.1419 0.4035,0.2063 0.6373,0.1556 0.0377,-0.0084 0.0742,-0.0193 0.109,-0.0325 0.1505,0.1436 0.2323,0.3548 0.2022,0.5767 -0.05,0.3676 -0.3885,0.6251 -0.7561,0.5751z"/>
   <path id="_370914200" class="fil0" d="M42.2874 18.6235c-0.1728,0.3283 -0.5787,0.4543 -0.9071,0.2819 -0.2074,-0.1092 -0.3339,-0.3117 -0.3555,-0.5285 0.2185,-0.1407 0.3526,-0.3886 0.3438,-0.654 0.1909,-0.1052 0.4294,-0.1155 0.637,-0.0064 0.3285,0.1725 0.4546,0.5787 0.2818,0.907z"/>
   <path id="_370914128" class="fil0" d="M41.9799 16.4832c0.2495,0.2745 0.2292,0.6991 -0.0453,0.9487 -0.1671,0.1517 -0.3898,0.2036 -0.5946,0.1592 -0.0637,-0.2721 -0.2687,-0.4752 -0.5201,-0.5487 -0.0349,-0.2167 0.0367,-0.4461 0.2115,-0.6046 0.2744,-0.2496 0.6992,-0.2291 0.9485,0.0454z"/>
   <path id="_370913984" class="fil0" d="M39.8414 16.0214c0.3434,-0.1406 0.7356,0.0238 0.876,0.367 0.0849,0.2074 0.0584,0.4326 -0.0515,0.6093 -0.0674,-0.0042 -0.1365,0.0008 -0.2058,0.016 -0.1889,0.041 -0.3455,0.1498 -0.4499,0.2956 -0.2315,-0.0302 -0.4411,-0.1803 -0.5359,-0.412 -0.1404,-0.3434 0.0239,-0.7355 0.3671,-0.8759z"/>
   <polygon id="_370911680" class="fil0" points="43.7794,31.7708 43.5557,32.8416 29.9036,29.9918 30.1269,28.9211 "/>
   <path id="_370911656" class="fil0" d="M28.1684 29.071l0 0c0.0503,-0.2403 -0.0789,-0.4704 -0.2888,-0.5144 -0.2098,-0.0436 -0.4202,0.1157 -0.4704,0.356 -0.05,0.2402 0.0793,0.4703 0.2887,0.5141 0.2098,0.0437 0.4203,-0.1154 0.4705,-0.3557zm9.5437 1.992l0 0c-0.1192,0.5704 -0.624,0.9524 -1.1219,0.8485l-9.4838 -1.98c-0.4979,-0.1037 -0.808,-0.6556 -0.6889,-1.2261 0.1191,-0.5704 0.6241,-0.9522 1.122,-0.8484l9.4837 1.9799c0.4981,0.1037 0.808,0.6557 0.6889,1.2261z"/>
   <path id="_370911752" class="fil0" d="M45.7622 37.3737l0 0c2.4503,0.5115 4.8515,-1.0603 5.3631,-3.5109 0.5114,-2.4503 -1.0604,-4.8515 -3.5109,-5.3628 -2.4502,-0.5117 -4.8515,1.0601 -5.363,3.5106 -0.5116,2.4504 1.0603,4.8515 3.5108,5.3631zm-1.8853 -2.329l0 0c-0.0355,0.1713 -0.2033,0.2811 -0.3747,0.2454 -0.1709,-0.0357 -0.2808,-0.2036 -0.2453,-0.3747 0.0359,-0.1713 0.2038,-0.2811 0.3748,-0.2453 0.1711,0.0357 0.2811,0.2033 0.2452,0.3746zm1.2914 0.2695l0 0c-0.036,0.1712 -0.2037,0.281 -0.3749,0.2454 -0.1712,-0.0358 -0.2811,-0.2034 -0.2451,-0.3749 0.0357,-0.1711 0.2033,-0.2809 0.3746,-0.245 0.1711,0.0356 0.2811,0.2034 0.2454,0.3745zm1.2909 0.2695l0 0c-0.0357,0.1711 -0.2034,0.2811 -0.3746,0.2453 -0.1713,-0.0357 -0.2811,-0.2034 -0.2451,-0.3747 0.0357,-0.1712 0.2034,-0.2809 0.3746,-0.2451 0.1712,0.0356 0.2809,0.2033 0.2451,0.3745zm1.2912 0.2696l0 0c-0.0355,0.1713 -0.2034,0.2811 -0.3748,0.2452 -0.1709,-0.0356 -0.2807,-0.2034 -0.2451,-0.3747 0.0356,-0.1711 0.2033,-0.2808 0.3746,-0.2452 0.1712,0.0358 0.2811,0.2034 0.2453,0.3747zm1.2914 0.2695l0 0c-0.036,0.1711 -0.2039,0.2811 -0.375,0.2453 -0.1712,-0.0357 -0.2807,-0.2035 -0.2451,-0.3748 0.0357,-0.1711 0.2033,-0.2809 0.3746,-0.2452 0.1713,0.0356 0.2811,0.2034 0.2455,0.3747zm-4.8955 -2.3691l0 0c-0.0355,0.171 -0.2033,0.2809 -0.3743,0.2452 -0.1714,-0.0357 -0.2812,-0.2035 -0.2456,-0.3747 0.0359,-0.1712 0.2037,-0.281 0.3748,-0.2451 0.1712,0.0356 0.2811,0.2033 0.2451,0.3746zm1.2914 0.2693l0 0c-0.0358,0.1714 -0.2035,0.2811 -0.3748,0.2454 -0.171,-0.0357 -0.2808,-0.2036 -0.2452,-0.3747 0.0358,-0.1711 0.2034,-0.2809 0.3747,-0.2452 0.1711,0.0357 0.2807,0.2034 0.2453,0.3745zm1.2912 0.2696l0 0c-0.0359,0.1712 -0.2035,0.281 -0.3751,0.2454 -0.1709,-0.0358 -0.2808,-0.2035 -0.2449,-0.3748 0.0356,-0.1713 0.2034,-0.2809 0.3745,-0.2452 0.1713,0.0357 0.2811,0.2034 0.2455,0.3746zm1.2908 0.2695l0 0c-0.0355,0.1712 -0.2033,0.2811 -0.3746,0.2452 -0.171,-0.0357 -0.2807,-0.2034 -0.2452,-0.3747 0.0359,-0.1711 0.2035,-0.2809 0.3747,-0.2451 0.1714,0.0355 0.2811,0.2033 0.2451,0.3746zm1.2914 0.2695l0 0c-0.0356,0.1713 -0.2035,0.2811 -0.3748,0.2453 -0.171,-0.0357 -0.2807,-0.2035 -0.245,-0.3747 0.0357,-0.1712 0.2033,-0.2808 0.3742,-0.2451 0.1715,0.0356 0.2814,0.2034 0.2456,0.3745zm-4.8953 -2.3692l0 0c-0.0356,0.1713 -0.2033,0.281 -0.3746,0.2455 -0.1712,-0.0359 -0.2811,-0.2037 -0.2454,-0.3748 0.0361,-0.1713 0.2038,-0.2811 0.3749,-0.2454 0.1714,0.0358 0.2811,0.2036 0.2451,0.3747zm1.2912 0.2697l0 0c-0.0354,0.171 -0.2033,0.281 -0.3744,0.2452 -0.1713,-0.0358 -0.2811,-0.2036 -0.2454,-0.3746 0.0359,-0.1713 0.2036,-0.2812 0.3747,-0.2453 0.1713,0.0356 0.2811,0.2033 0.2451,0.3747zm1.2914 0.2694l0 0c-0.036,0.1711 -0.2035,0.2809 -0.3747,0.2453 -0.1711,-0.0357 -0.281,-0.2037 -0.2453,-0.3746 0.0358,-0.1713 0.2033,-0.2811 0.3744,-0.2454 0.1715,0.0358 0.2812,0.2034 0.2456,0.3747zm1.2912 0.2695l0 0c-0.0359,0.1711 -0.2036,0.281 -0.3749,0.2453 -0.1712,-0.0358 -0.2811,-0.2035 -0.2451,-0.3746 0.0357,-0.1714 0.2035,-0.2811 0.3746,-0.2454 0.1713,0.0358 0.2811,0.2035 0.2454,0.3747zm1.2911 0.2697l0 0c-0.0357,0.171 -0.2035,0.2808 -0.3748,0.245 -0.171,-0.0357 -0.2809,-0.2035 -0.2453,-0.3746 0.0359,-0.1711 0.2034,-0.2811 0.3748,-0.2453 0.1713,0.0357 0.2811,0.2035 0.2453,0.3749zm-4.8952 -2.3693l0 0c-0.0358,0.1709 -0.2035,0.2809 -0.3747,0.2453 -0.1711,-0.0359 -0.2811,-0.2035 -0.2451,-0.3748 0.0357,-0.1712 0.2033,-0.2809 0.3746,-0.2453 0.1713,0.0357 0.2809,0.2034 0.2452,0.3748zm1.2911 0.2694l0 0c-0.0357,0.1712 -0.2034,0.2811 -0.3744,0.2454 -0.1712,-0.0359 -0.2812,-0.2035 -0.2456,-0.3747 0.0358,-0.1714 0.2038,-0.2812 0.3747,-0.2455 0.1715,0.0359 0.2811,0.2037 0.2453,0.3748zm1.2914 0.2696l0 0c-0.0357,0.171 -0.2037,0.281 -0.375,0.2452 -0.1711,-0.0357 -0.2808,-0.2035 -0.2451,-0.3746 0.0357,-0.1713 0.2035,-0.2811 0.3746,-0.2454 0.1713,0.0358 0.2809,0.2035 0.2455,0.3748zm1.291 0.2696l0 0c-0.0356,0.1709 -0.2033,0.281 -0.3748,0.2451 -0.1712,-0.0358 -0.2807,-0.2035 -0.2451,-0.3746 0.0358,-0.1712 0.2035,-0.2811 0.3746,-0.2454 0.1713,0.0358 0.2809,0.2035 0.2453,0.3749zm1.2911 0.2694l0 0c-0.0356,0.171 -0.2034,0.2811 -0.3749,0.2453 -0.1708,-0.0358 -0.2807,-0.2035 -0.2452,-0.3746 0.0359,-0.1715 0.2038,-0.2811 0.3747,-0.2455 0.1715,0.0359 0.2811,0.2037 0.2454,0.3748zm-4.895 -2.3693l0 0c-0.0358,0.1711 -0.2035,0.2812 -0.3748,0.2454 -0.1711,-0.0358 -0.2809,-0.2035 -0.2453,-0.3746 0.0358,-0.1713 0.2034,-0.2811 0.3748,-0.2456 0.171,0.0358 0.281,0.2036 0.2453,0.3748zm1.2912 0.2696l0 0c-0.036,0.1711 -0.2034,0.281 -0.3746,0.2453 -0.1716,-0.0359 -0.2813,-0.2035 -0.2454,-0.3746 0.0357,-0.1715 0.2034,-0.2811 0.3748,-0.2454 0.171,0.0358 0.2808,0.2033 0.2452,0.3747zm1.2909 0.2695l0 0c-0.0356,0.1712 -0.2034,0.281 -0.3746,0.2452 -0.1711,-0.0358 -0.2808,-0.2033 -0.2453,-0.3746 0.0358,-0.1713 0.2036,-0.2809 0.3748,-0.2453 0.1713,0.0356 0.281,0.2035 0.2451,0.3747zm1.2913 0.2694l0 0c-0.0357,0.1712 -0.2035,0.2812 -0.3747,0.2453 -0.1712,-0.0357 -0.281,-0.2033 -0.2453,-0.3746 0.0357,-0.1713 0.2033,-0.2809 0.3747,-0.2452 0.1712,0.0356 0.2813,0.2035 0.2453,0.3745zm1.2913 0.2697c-0.0359,0.1712 -0.2034,0.281 -0.3747,0.2451 -0.1714,-0.0356 -0.2812,-0.2034 -0.2456,-0.3745 0.0359,-0.1714 0.2037,-0.2811 0.3748,-0.2455 0.1713,0.0359 0.2811,0.2037 0.2455,0.3749z"/>
   <path id="_370908320" class="fil1" d="M35.0403 47.5518c2.8221,0 5.124,-2.302 5.124,-5.1242 0,-2.8222 -2.3019,-5.124 -5.124,-5.124 -2.8223,0 -5.1241,2.3018 -5.1241,5.124 0,2.8222 2.3018,5.1242 5.1241,5.1242z"/>
   <path id="_370908176" class="fil1" d="M35.0403 47.5518l0 0.0467c2.8482,-0.0001 5.1706,-2.3226 5.1708,-5.1709 -0.0002,-2.8482 -2.3227,-5.1708 -5.1708,-5.1709 -2.8483,0.0001 -5.1708,2.3228 -5.171,5.1709 0.0002,2.8483 2.3227,5.1708 5.171,5.1709l0 -0.0467 0 -0.0469c-1.3983,0 -2.6674,-0.5702 -3.5873,-1.4901 -0.9199,-0.9199 -1.49,-2.189 -1.49,-3.5872 0,-1.3982 0.5701,-2.6673 1.49,-3.5872 0.9199,-0.92 2.189,-1.4901 3.5873,-1.4901 1.3982,0 2.6673,0.5701 3.5872,1.4901 0.9199,0.9199 1.4899,2.189 1.4899,3.5872 0,1.3982 -0.57,2.6673 -1.4899,3.5872 -0.9199,0.9199 -2.189,1.4901 -3.5872,1.4901l0 0.0469z"/>
   <path id="_370908728" class="fil1" d="M32.0925 39.2732l0 0 2.2625 2.2627c0.0882,0.088 0.145,0.1959 0.1679,0.3115 0.0227,0.1139 0.0114,0.2349 -0.0364,0.3505 -0.0479,0.1154 -0.1256,0.209 -0.2228,0.2743 -0.0979,0.0652 -0.2142,0.1014 -0.3387,0.1014l-3.1997 0c-0.0878,0 -0.1709,-0.0174 -0.248,-0.0519 -0.0765,-0.0338 -0.1449,-0.084 -0.2038,-0.1495 -0.0591,-0.0657 -0.1019,-0.1388 -0.1277,-0.2186 -0.0257,-0.0793 -0.0342,-0.1633 -0.0248,-0.2512 0.0506,-0.4794 0.1696,-0.9379 0.347,-1.3665 0.1827,-0.4408 0.427,-0.8491 0.7217,-1.2141 0.0556,-0.0687 0.1213,-0.1227 0.1959,-0.1607 0.0748,-0.0381 0.1568,-0.0598 0.2452,-0.0647 0.0886,-0.0047 0.1722,0.0081 0.2497,0.0378 0.0784,0.0301 0.1495,0.0766 0.212,0.139zm2.0559 2.4691l-2.2625 -2.2625c-0.0336,-0.0335 -0.0702,-0.0577 -0.1093,-0.0728 -0.0401,-0.0155 -0.084,-0.0221 -0.131,-0.0195 -0.0475,0.0025 -0.0901,0.0133 -0.1276,0.0326 -0.0373,0.0191 -0.0713,0.0472 -0.1011,0.084 -0.2783,0.3444 -0.5081,0.7285 -0.6795,1.1426 -0.167,0.403 -0.279,0.8345 -0.3266,1.2852 -0.0049,0.0471 -0.0008,0.0914 0.0122,0.1317 0.0132,0.0401 0.0358,0.0785 0.0673,0.1135 0.0318,0.0353 0.0673,0.0617 0.1057,0.0787 0.0381,0.0172 0.0814,0.0258 0.1293,0.0258l3.1997 0c0.0665,0 0.1271,-0.0183 0.1765,-0.0513 0.0502,-0.0336 0.0905,-0.0825 0.1156,-0.1431 0.0252,-0.0608 0.0313,-0.1244 0.0195,-0.184 -0.0116,-0.0585 -0.0415,-0.1143 -0.0882,-0.1609z"/>
   <path id="_370908704" class="fil1" d="M30.2391 42.2816l0 0 3.646 0c0.1279,0 0.2474,0.037 0.3479,0.1042 0.0999,0.0669 0.1797,0.163 0.2289,0.2818 0.0492,0.1186 0.0608,0.2426 0.0375,0.36 -0.0237,0.1184 -0.0819,0.2294 -0.1726,0.3199l-2.2213 2.2212c-0.0644,0.0644 -0.1376,0.1123 -0.2181,0.1431 -0.08,0.0307 -0.1665,0.0437 -0.2578,0.0386 -0.0911,-0.0051 -0.1756,-0.0277 -0.2521,-0.0669 -0.0764,-0.0395 -0.1436,-0.095 -0.2005,-0.1658 -0.3452,-0.4311 -0.6197,-0.9213 -0.8062,-1.4532 -0.18,-0.5132 -0.2779,-1.0642 -0.2779,-1.6369l0 -0.146 0.1462 0zm3.646 0.292l-3.2551 0c-0.0664,0 -0.1237,0.0251 -0.1688,0.074 -0.0449,0.049 -0.0653,0.108 -0.0596,0.1742 0.0333,0.3992 0.1168,0.7837 0.2441,1.1467 0.1753,0.5001 0.4336,0.9611 0.7583,1.3665 0.0313,0.0388 0.0672,0.0689 0.1071,0.0894 0.0397,0.0206 0.0847,0.0322 0.1345,0.0352 0.0494,0.0024 0.0955,-0.0045 0.1378,-0.0205 0.0415,-0.0157 0.0802,-0.0413 0.1155,-0.0768l2.2212 -2.2212c0.0492,-0.0492 0.0805,-0.1079 0.0929,-0.1693 0.0123,-0.0631 0.0061,-0.1298 -0.0204,-0.1934 -0.0264,-0.0639 -0.0689,-0.1155 -0.1216,-0.1506 -0.0521,-0.035 -0.1159,-0.0542 -0.1859,-0.0542z"/>
   <path id="_370907360" class="fil1" d="M31.9333 45.3968l0 0 2.2214 -2.2214c0.0836,-0.0839 0.1857,-0.1376 0.2947,-0.1592 0.1084,-0.0216 0.2227,-0.0109 0.3324,0.0347 0.1096,0.0451 0.1983,0.1188 0.2598,0.2108 0.0617,0.0924 0.0961,0.2028 0.0961,0.3207l0 3.1416c0,0.084 -0.0167,0.1625 -0.0492,0.2354 -0.0321,0.0721 -0.0798,0.137 -0.1428,0.1934 -0.0628,0.0561 -0.1325,0.0967 -0.2076,0.1207 -0.0755,0.0242 -0.1556,0.032 -0.2389,0.0227 -0.4668,-0.0513 -0.9141,-0.1684 -1.3323,-0.3415 -0.4298,-0.1782 -0.8287,-0.4155 -1.1864,-0.7019 -0.0657,-0.0525 -0.1169,-0.1145 -0.1531,-0.1848 -0.0362,-0.0704 -0.057,-0.1483 -0.0616,-0.2327 -0.0047,-0.0844 0.0073,-0.1639 0.0354,-0.2375 0.0284,-0.0743 0.0726,-0.1417 0.1321,-0.201zm2.359 -2.0838l-2.2212 2.2214c-0.0402,0.0401 -0.0697,0.0847 -0.088,0.1326 -0.0187,0.0485 -0.0264,0.1014 -0.0233,0.1577 0.0031,0.0567 0.0167,0.1084 0.0403,0.1541 0.0238,0.0462 0.0579,0.0874 0.1022,0.1226 0.3436,0.2753 0.7264,0.503 1.1386,0.6738 0.4011,0.1663 0.8305,0.2786 1.2788,0.3278 0.0567,0.0063 0.11,0.0015 0.1591,-0.0143 0.0492,-0.0159 0.0954,-0.043 0.1376,-0.0806 0.042,-0.0377 0.0738,-0.0806 0.0949,-0.128 0.0208,-0.0464 0.0314,-0.0988 0.0314,-0.1561l0 -3.1416c0,-0.0793 -0.0221,-0.1525 -0.0624,-0.2126 -0.0405,-0.0609 -0.0993,-0.1093 -0.1724,-0.1394 -0.073,-0.0305 -0.1493,-0.0376 -0.2212,-0.0234 -0.071,0.014 -0.1383,0.05 -0.1944,0.106z"/>
   <path id="_370908032" class="fil1" d="M34.894 47.2289l0 0 0 -3.6465c0,-0.1275 0.0373,-0.2471 0.1044,-0.3475 0.0668,-0.1 0.1632,-0.18 0.2817,-0.2291 0.1187,-0.0491 0.2429,-0.0609 0.3602,-0.0373 0.1184,0.0234 0.2292,0.0819 0.3199,0.1726l2.2213 2.2212c0.0643,0.0642 0.1122,0.1376 0.1431,0.2181 0.0303,0.08 0.0434,0.1664 0.0384,0.2577 -0.005,0.091 -0.0274,0.1754 -0.0669,0.252 -0.0395,0.0765 -0.0948,0.1437 -0.1658,0.2005 -0.4311,0.3454 -0.9213,0.62 -1.4531,0.8063 -0.5132,0.1799 -1.0642,0.2777 -1.6371,0.2777l-0.1461 -0.0001 0 -0.1456zm0.2922 -3.6465l0 3.2552c0,0.0666 0.0251,0.1237 0.074,0.1688 0.0489,0.0451 0.1081,0.0653 0.1743,0.0598 0.3993,-0.0332 0.7835,-0.1169 1.1469,-0.2442 0.4998,-0.1755 0.9607,-0.4334 1.3662,-0.7583 0.039,-0.0314 0.069,-0.0672 0.0894,-0.1072 0.0205,-0.0396 0.0323,-0.0847 0.035,-0.1344 0.0028,-0.0493 -0.0041,-0.0955 -0.0202,-0.1379 -0.016,-0.0413 -0.0417,-0.08 -0.0769,-0.1155l-2.2212 -2.2212c-0.0492,-0.0489 -0.1079,-0.0804 -0.1694,-0.0926 -0.0628,-0.0124 -0.1295,-0.0063 -0.1935,0.0203 -0.0637,0.0264 -0.1152,0.069 -0.1505,0.1214 -0.0348,0.0523 -0.0541,0.1161 -0.0541,0.1858z"/>
   <path id="_370907768" class="fil1" d="M37.9749 45.5687l0 0 -2.2212 -2.2212c-0.0908,-0.0905 -0.1491,-0.2015 -0.1727,-0.3199 -0.0233,-0.1174 -0.0117,-0.2414 0.0375,-0.36 0.0492,-0.1188 0.129,-0.2149 0.2288,-0.2818 0.1005,-0.0672 0.22,-0.1042 0.3479,-0.1042l3.1416 0c0.0903,0 0.1759,0.018 0.255,0.0532 0.0784,0.0352 0.1487,0.0868 0.2096,0.1549 0.061,0.0678 0.1048,0.1434 0.131,0.2253 0.0264,0.0819 0.0348,0.1689 0.0248,0.2593l-0.0001 0c-0.0518,0.4713 -0.1699,0.9228 -0.3447,1.3447 -0.1801,0.4345 -0.4199,0.8375 -0.7089,1.1987 -0.0569,0.0708 -0.1243,0.1264 -0.2007,0.1658 -0.0765,0.0392 -0.161,0.0618 -0.2522,0.0669 -0.0912,0.0051 -0.1775,-0.0079 -0.2575,-0.0386 -0.0807,-0.0308 -0.1539,-0.0787 -0.2182,-0.1431zm-2.0147 -2.4276l2.2213 2.2212c0.0354,0.0355 0.074,0.0611 0.1154,0.0769 0.0423,0.0159 0.0885,0.0228 0.1377,0.0204 0.0498,-0.003 0.095,-0.0146 0.1347,-0.0352 0.0399,-0.0205 0.0758,-0.0506 0.1071,-0.0894 0.2721,-0.3402 0.4976,-0.7189 0.6667,-1.1265 0.1644,-0.3972 0.2755,-0.822 0.3242,-1.2658l0 -0.0005c0.0056,-0.0495 0.0014,-0.0961 -0.0124,-0.1384 -0.0136,-0.0427 -0.0372,-0.0831 -0.0703,-0.12 -0.0329,-0.0372 -0.0704,-0.065 -0.1114,-0.0829 -0.0403,-0.0181 -0.086,-0.0273 -0.1364,-0.0273l-3.1416 0c-0.0699,0 -0.1336,0.0192 -0.1857,0.0542 -0.0529,0.0351 -0.0953,0.0867 -0.1217,0.1506 -0.0265,0.0636 -0.0328,0.1303 -0.0204,0.1934 0.0124,0.0614 0.0437,0.1201 0.0928,0.1693z"/>
   <path id="_370907720" class="fil1" d="M39.8413 42.5736l0 0 -3.6461 0c-0.1279,0 -0.2474,-0.0372 -0.3479,-0.1044 -0.0998,-0.0666 -0.1796,-0.163 -0.2288,-0.2817 -0.0492,-0.1185 -0.0608,-0.2428 -0.0375,-0.3599 0.0236,-0.1185 0.0819,-0.2294 0.1727,-0.3201l2.2212 -2.2212c0.0643,-0.0644 0.1375,-0.1122 0.2182,-0.143 0.08,-0.0308 0.1663,-0.0435 0.2575,-0.0385 0.0912,0.0049 0.1757,0.0276 0.2522,0.0667 0.0764,0.0395 0.1437,0.0951 0.2007,0.166 0.3451,0.4311 0.6196,0.9211 0.8061,1.4529 0.1799,0.5133 0.2778,1.0644 0.2778,1.6372l0 0.146 -0.1461 0zm-3.6461 -0.292l3.2551 0c0.0666,0 0.1239,-0.0253 0.1689,-0.0743 0.0449,-0.0488 0.0652,-0.1079 0.0597,-0.1741 -0.0334,-0.3992 -0.117,-0.7838 -0.2443,-1.1469 -0.1753,-0.4997 -0.4334,-0.9605 -0.7582,-1.3661 -0.0313,-0.0392 -0.0672,-0.0689 -0.1071,-0.0894 -0.0397,-0.0205 -0.0848,-0.0324 -0.1347,-0.0352 -0.0492,-0.0026 -0.0954,0.0042 -0.1377,0.0205 -0.0414,0.0157 -0.08,0.0415 -0.1154,0.0767l-2.2213 2.2213c-0.0491,0.0492 -0.0804,0.1079 -0.0928,0.1693 -0.0124,0.0627 -0.0061,0.1297 0.0204,0.1934 0.0264,0.0638 0.0688,0.1153 0.1217,0.1505 0.0521,0.035 0.1158,0.0543 0.1857,0.0543z"/>
   <path id="_370907648" class="fil1" d="M38.1898 39.467l0 0 -2.3037 2.3034c-0.0857,0.0857 -0.1908,0.1411 -0.3029,0.1636 -0.1112,0.0221 -0.2286,0.0107 -0.3411,-0.0356 -0.1124,-0.0466 -0.2035,-0.122 -0.2668,-0.2168 -0.0635,-0.095 -0.0989,-0.2083 -0.0989,-0.3293l0.0001 -3.2579c0,-0.085 0.017,-0.1653 0.0501,-0.2402 0.0329,-0.0742 0.0816,-0.1407 0.1451,-0.1982 0.0643,-0.0579 0.1352,-0.0999 0.212,-0.125 0.0765,-0.0251 0.1581,-0.0332 0.2436,-0.0248 0.4867,0.0494 0.9525,0.1693 1.387,0.3492 0.4471,0.1853 0.8611,0.4342 1.2305,0.7349 0.0667,0.0543 0.1186,0.1184 0.1554,0.1908 0.0364,0.072 0.0573,0.1516 0.0616,0.2375l0 0.0006c0.0044,0.0848 -0.0083,0.1658 -0.0374,0.2418 -0.0294,0.0761 -0.0744,0.145 -0.1346,0.2055l0 0.0005zm-2.5101 2.097l2.3035 -2.3035 0.0003 0c0.0318,-0.032 0.0552,-0.0667 0.0693,-0.1032 0.0143,-0.0371 0.0203,-0.0786 0.0182,-0.1239l-0.0002 0c-0.0022,-0.0446 -0.0126,-0.0852 -0.0308,-0.1212 -0.0182,-0.0357 -0.0445,-0.0679 -0.0789,-0.0959 -0.348,-0.2833 -0.7373,-0.5176 -1.1577,-0.6914 -0.409,-0.1696 -0.8471,-0.2823 -1.3048,-0.3288 -0.0444,-0.0045 -0.0862,-0.0005 -0.1249,0.0122 -0.0382,0.0126 -0.0741,0.034 -0.1069,0.0634 -0.0331,0.0299 -0.0581,0.0638 -0.0743,0.1001 -0.0158,0.0357 -0.0239,0.0768 -0.0239,0.1226l0 3.2579c0,0.063 0.0174,0.1204 0.0487,0.1674 0.0317,0.0474 0.0781,0.0856 0.1356,0.1092 0.0577,0.0241 0.1177,0.0299 0.1744,0.0187 0.0552,-0.0113 0.108,-0.0395 0.1524,-0.0836z"/>
   <path id="_370907624" class="fil0" d="M30.01 42.4276l0 0c0,-2.778 2.2521,-5.0302 5.0301,-5.0302 2.778,0 5.0302,2.2522 5.0302,5.0302 0,2.7781 -2.2522,5.03 -5.0302,5.03 -2.778,0 -5.0301,-2.2519 -5.0301,-5.03zm5.0301 -5.5976c-3.0913,0 -5.5974,2.5064 -5.5974,5.5976 0,3.0912 2.5061,5.5975 5.5974,5.5975 3.0914,0 5.5975,-2.5062 5.5975,-5.5975 0,-3.0912 -2.5061,-5.5975 -5.5975,-5.5976z"/>
   <path id="_370907456" class="fil0" d="M34.6458 37.789c-0.4156,0.0347 -0.8154,0.1239 -1.192,0.2603 -0.5133,0.1859 -0.9848,0.4601 -1.3963,0.8038 -0.0288,0.0239 -0.0504,0.0509 -0.065,0.0803 -0.0148,0.03 -0.0232,0.0635 -0.0248,0.1002 -0.0017,0.0376 0.0035,0.0719 0.0155,0.1029 0.0117,0.0297 0.031,0.0585 0.0579,0.0854l0.0514 0.0513 2.2625 2.2627 0.1127 0.1126c0.0369,0.0367 0.0809,0.0606 0.127,0.0697 0.0472,0.0094 0.0975,0.0047 0.1457,-0.0151 0.0481,-0.0202 0.0868,-0.0521 0.1133,-0.0917 0.026,-0.0388 0.0403,-0.0869 0.0403,-0.1398l0 -0.1193 0 -3.2579 0 -0.077c0,-0.0666 -0.025,-0.1239 -0.0739,-0.1686 -0.0489,-0.0453 -0.1081,-0.0654 -0.1743,-0.0598z"/>
   <path id="_370907816" class="fil0" d="M34.1484 41.7423l-2.2625 -2.2625 -0.0023 -0.0023c-0.0329,-0.0322 -0.0686,-0.0561 -0.107,-0.0705 -0.0401,-0.0155 -0.084,-0.0221 -0.131,-0.0195 -0.0475,0.0025 -0.0901,0.0133 -0.1276,0.0326 -0.0373,0.0191 -0.0713,0.0472 -0.1011,0.084 -0.2783,0.3444 -0.5081,0.7285 -0.6795,1.1426 -0.167,0.403 -0.279,0.8345 -0.3266,1.2852 -0.0049,0.0471 -0.0008,0.0914 0.0122,0.1317 0.0132,0.0401 0.0358,0.0785 0.0673,0.1135 0.0318,0.0353 0.0673,0.0617 0.1057,0.0787 0.0381,0.0172 0.0814,0.0258 0.1293,0.0258l3.1598 0 0.0399 0c0.0665,0 0.1271,-0.0183 0.1766,-0.0513 0.0501,-0.0336 0.0904,-0.0825 0.1155,-0.1431 0.0252,-0.0608 0.0313,-0.1244 0.0195,-0.184 -0.0116,-0.0585 -0.0415,-0.1143 -0.0882,-0.1609z"/>
   <path id="_370907960" class="fil0" d="M33.8851 42.5736l-3.1598 0 -0.0953 0c-0.0664,0 -0.1237,0.0251 -0.1688,0.074 -0.0449,0.049 -0.0653,0.108 -0.0596,0.1742 0.0333,0.3992 0.1168,0.7837 0.2441,1.1467 0.1753,0.5001 0.4336,0.9611 0.7583,1.3665 0.0313,0.0388 0.0672,0.0689 0.1071,0.0894 0.0397,0.0206 0.0847,0.0322 0.1345,0.0352 0.0494,0.0024 0.0955,-0.0045 0.1378,-0.0205 0.0415,-0.0157 0.0802,-0.0413 0.1155,-0.0768l2.2212 -2.2212c0.0492,-0.0492 0.0805,-0.1079 0.0929,-0.1693 0.0123,-0.0631 0.0061,-0.1298 -0.0204,-0.1934 -0.0264,-0.0639 -0.0689,-0.1155 -0.1216,-0.1506 -0.0521,-0.035 -0.1159,-0.0542 -0.1859,-0.0542z"/>
   <path id="_370907912" class="fil0" d="M34.422 43.2265c-0.0263,0.0431 -0.058,0.0839 -0.0952,0.121l-2.2213 2.2212c-0.0376,0.0375 -0.0781,0.0697 -0.1213,0.0958l-0.0011 0.0025c-0.0187,0.0485 -0.0264,0.1014 -0.0233,0.1577 0.0031,0.0567 0.0167,0.1084 0.0403,0.1541 0.0238,0.0462 0.0579,0.0874 0.1022,0.1226 0.3436,0.2753 0.7264,0.503 1.1386,0.6738 0.4011,0.1663 0.8305,0.2786 1.2788,0.3278 0.0567,0.0063 0.11,0.0015 0.1591,-0.0143 0.0492,-0.0159 0.0954,-0.043 0.1376,-0.0803 0.0319,-0.0289 0.0578,-0.0603 0.0776,-0.0945l0 -3.3315c0,-0.0527 0.0064,-0.1037 0.0185,-0.1529 -0.0089,-0.0209 -0.0197,-0.0409 -0.0322,-0.0597 -0.0405,-0.0609 -0.0993,-0.1093 -0.1724,-0.1394 -0.073,-0.0305 -0.1493,-0.0376 -0.2212,-0.0234 -0.022,0.0043 -0.0436,0.0109 -0.0647,0.0195z"/>
   <path id="_370907528" class="fil0" d="M37.9749 45.5687l-2.2213 -2.2212c-0.0491,-0.0489 -0.1078,-0.0804 -0.1693,-0.0926 -0.0628,-0.0124 -0.1295,-0.0063 -0.1935,0.0203 -0.0637,0.0264 -0.1152,0.0687 -0.1504,0.1217 -0.0349,0.052 -0.0542,0.1158 -0.0542,0.1855l0 3.2552c0,0.0666 0.0251,0.1237 0.074,0.1688 0.0489,0.0451 0.1081,0.0653 0.1743,0.0598 0.3993,-0.0335 0.7835,-0.1169 1.1469,-0.2442 0.4998,-0.1755 0.9607,-0.4334 1.3662,-0.7583 0.039,-0.0314 0.069,-0.0672 0.0894,-0.1072 0.0205,-0.0396 0.0323,-0.0847 0.035,-0.1344 0.0028,-0.0493 -0.0041,-0.0955 -0.0202,-0.1379 -0.016,-0.0413 -0.0417,-0.08 -0.0769,-0.1155z"/>
   <path id="_99604656" class="fil0" d="M39.3368 42.5736l-3.1416 0c-0.0699,0 -0.1336,0.0192 -0.1857,0.0542 -0.0529,0.0351 -0.0953,0.0867 -0.1217,0.1506 -0.0265,0.0636 -0.0328,0.1303 -0.0204,0.1934 0.0124,0.0614 0.0437,0.1201 0.0928,0.1693l2.2213 2.2212c0.0354,0.0355 0.074,0.0611 0.1154,0.0769 0.0423,0.0159 0.0885,0.0228 0.1377,0.0204 0.0498,-0.003 0.095,-0.0146 0.1347,-0.0352 0.0399,-0.0205 0.0758,-0.0506 0.1071,-0.0894 0.2721,-0.3402 0.4976,-0.7189 0.6667,-1.1265 0.1644,-0.3972 0.2755,-0.822 0.3242,-1.2658l0 -0.0005c0.0056,-0.0495 0.0014,-0.0961 -0.0124,-0.1384 -0.0136,-0.0427 -0.0372,-0.0831 -0.0703,-0.12 -0.0329,-0.0372 -0.0704,-0.065 -0.1114,-0.0829 -0.0403,-0.0181 -0.086,-0.0273 -0.1364,-0.0273z"/>
   <path id="_98276176" class="fil0" d="M38.1815 39.4927l-2.2213 2.2214 -0.0004 0.0005c-0.0489,0.0489 -0.08,0.1074 -0.0924,0.1688 -0.0124,0.0627 -0.0061,0.1297 0.0204,0.1934 0.0264,0.0638 0.0688,0.1153 0.1217,0.1505 0.0521,0.035 0.1158,0.0543 0.1857,0.0543l3.1416 0 0.1135 0c0.0666,0 0.1239,-0.0253 0.1689,-0.0743 0.045,-0.0488 0.0652,-0.1079 0.0597,-0.1741 -0.0334,-0.3992 -0.117,-0.7838 -0.2443,-1.1469 -0.1753,-0.4997 -0.4334,-0.9605 -0.7582,-1.3661 -0.0313,-0.0392 -0.0672,-0.0689 -0.1071,-0.0894 -0.0397,-0.0205 -0.0848,-0.0324 -0.1347,-0.0352 -0.0492,-0.0026 -0.0954,0.0042 -0.1377,0.0205 -0.0406,0.0153 -0.0785,0.0403 -0.1132,0.0745l-0.0022 0.0021z"/>
   <path id="_367837376" class="fil0" d="M36.8034 38.1249c-0.409,-0.1696 -0.8471,-0.2823 -1.3048,-0.3288 -0.0444,-0.0045 -0.0862,-0.0005 -0.1249,0.0122 -0.0382,0.0126 -0.0741,0.034 -0.1069,0.0634 -0.0331,0.0299 -0.0581,0.0638 -0.0743,0.1001 -0.0158,0.0357 -0.0239,0.0768 -0.0239,0.1226l0 3.2579c0,0.063 0.0174,0.1204 0.0487,0.1674 0.0317,0.0474 0.0781,0.0856 0.1356,0.1092 0.0577,0.0241 0.1177,0.0299 0.1744,0.0187 0.0552,-0.0113 0.108,-0.0395 0.1524,-0.0836l2.3035 -2.3035 0.0003 0c0.0318,-0.032 0.0552,-0.0667 0.0693,-0.1032 0.0143,-0.0371 0.0203,-0.0786 0.018,-0.1239 -0.0022,-0.0446 -0.0126,-0.0852 -0.0308,-0.1212 -0.0182,-0.0357 -0.0445,-0.0679 -0.0789,-0.0959 -0.348,-0.2833 -0.7373,-0.5176 -1.1577,-0.6914z"/>
   <path id="_370964800" class="fil0" d="M27.3246 4.416l1.6881 1.5509c0.2134,0.1959 0.2277,0.5308 0.0317,0.7442l-0.2305 0.2509c-0.1958,0.2133 -0.5307,0.2274 -0.7441,0.0317l-1.6881 -1.5508c-0.2134,-0.1959 -0.2277,-0.5308 -0.0317,-0.7441l0.2306 -0.251c0.1957,-0.2131 0.5308,-0.2275 0.744,-0.0318z"/>
   <path id="_370964824" class="fil0" d="M16.7321 16.2925l5.1439 0.9168c0.1361,0.0245 0.2271,0.1551 0.203,0.2909l0 0.0003c-0.024,0.1356 -0.1549,0.2269 -0.2908,0.2027l-5.144 -0.9167c-0.1357,-0.0244 -0.2269,-0.1551 -0.2028,-0.291 0.0244,-0.1357 0.1551,-0.2271 0.2907,-0.203z"/>
   <path id="_370964776" class="fil0" d="M13.657 9.6834c-0.464,2.6041 0.8874,5.1442 3.1984,6.4927l4.9454 0.8815c2.6349,-0.4673 4.7804,-2.3841 5.2445,-4.9881l-13.3883 -2.3861z"/>
   <path id="_370965064" class="fil0" d="M13.4339 8.3744l14.2729 2.5434c0.2517,0.0451 0.4206,0.2874 0.3759,0.5389 -0.0447,0.2519 -0.2876,0.421 -0.5388,0.3763l-14.273 -2.5438c-0.2516,-0.0448 -0.4209,-0.2872 -0.376,-0.5389 0.045,-0.2516 0.2874,-0.4207 0.539,-0.3759z"/>
   <polygon id="_370965040" class="fil0" points="26.3885,5.4489 22.0265,9.9057 25.0798,10.4498 28.0631,6.9872 "/>
   <path id="_370964992" class="fil1" d="M17.8641 12.6295c0.2064,-0.3942 0.6931,-0.5463 1.0873,-0.3399 0.2639,0.1381 0.419,0.402 0.4311,0.6793 -0.144,0.0823 -0.2667,0.2053 -0.3493,0.363 -0.0665,0.1265 -0.0996,0.2616 -0.1026,0.3954 -0.2222,0.108 -0.4912,0.113 -0.7267,-0.0107 -0.3943,-0.2062 -0.5463,-0.6932 -0.3398,-1.0871z"/>
   <path id="_370965208" class="fil1" d="M18.1419 15.233c-0.2998,-0.3288 -0.2762,-0.8383 0.0525,-1.1379 0.2104,-0.1919 0.4948,-0.2512 0.7507,-0.183 0.0487,0.2621 0.2128,0.5001 0.4671,0.6333 0.0412,0.0214 0.0828,0.0396 0.1252,0.0539 0.0278,0.2478 -0.0591,0.5053 -0.2578,0.6865 -0.3285,0.2993 -0.838,0.2759 -1.1377,-0.0528z"/>
   <path id="_370964584" class="fil1" d="M20.6892 15.8397c-0.4113,0.1693 -0.8821,-0.0273 -1.0515,-0.4385 -0.1066,-0.26 -0.0677,-0.5435 0.0796,-0.7601 0.3092,0.0392 0.6231,-0.0862 0.8195,-0.3369 0.2567,0.0502 0.4841,0.2244 0.5909,0.4843 0.1694,0.4113 -0.0271,0.8821 -0.4385,1.0512z"/>
   <path id="_370964944" class="fil1" d="M22.0531 13.634c0.0184,0.4444 -0.3272,0.8198 -0.7718,0.838 -0.2702,0.0111 -0.5151,-0.1125 -0.6694,-0.3111 0.1507,-0.299 0.1184,-0.6438 -0.0563,-0.9048 0.1347,-0.2261 0.3769,-0.3821 0.6598,-0.3937 0.4444,-0.0182 0.8194,0.3272 0.8377,0.7716z"/>
   <path id="_370964920" class="fil1" d="M20.4409 11.5637c0.4237,0.1348 0.6584,0.5877 0.5235,1.012 -0.0816,0.2556 -0.279,0.4427 -0.5165,0.521 -0.0586,-0.056 -0.1258,-0.1047 -0.2014,-0.144 -0.205,-0.1078 -0.433,-0.128 -0.6412,-0.0741 -0.19,-0.2062 -0.2672,-0.5052 -0.1762,-0.7913 0.1349,-0.424 0.588,-0.6585 1.0118,-0.5236z"/>
   <path id="_370964320" class="fil0" d="M48.3254 61.3232l3.4281 -12.8303c0.2655,-0.9927 0.6905,-1.7506 1.6837,-1.4852 0.9933,0.2654 1.0927,1.1629 0.8275,2.1563l-0.672 2.5156c-0.0479,0.1791 0.0592,0.3639 0.2384,0.4118l0.0288 0.0074c0.1793,0.048 0.3644,-0.0589 0.4122,-0.238l0.6737 -2.5214c0.3611,-1.3516 0.0465,-2.6219 -1.3055,-2.9832 -1.3527,-0.3614 -2.1484,0.6118 -2.5098,1.9636l-3.4284 12.8308 0.6233 0.1726c-0.7314,2.7376 -3.5428,4.3636 -6.281,3.6321 -2.7374,-0.7316 -4.364,-3.5433 -3.6324,-6.2808l9.9134 2.6487z"/>
   <path id="_370963936" class="fil2 str0" d="M43.6527 52.3984c0.3556,-0.5821 0.7108,-0.8733 1.4218,-0.8733 0.7849,0 1.4221,0.5217 1.4221,1.1645 0,1.1645 -1.4221,2.3288 -2.8439,3.4933 -1.4221,-1.1645 -2.8438,-2.3288 -2.8438,-3.4933 0,-0.6428 0.6368,-1.1645 1.4217,-1.1645 0.7112,0 1.0666,0.2912 1.4221,0.8733z"/>
  </g>
 </g>
</svg>
