<?xml version="1.0" encoding="UTF-8"?>
<!DOCTYPE svg PUBLIC "-//W3C//DTD SVG 1.1//EN" "http://www.w3.org/Graphics/SVG/1.1/DTD/svg11.dtd">
<!-- Creator: CorelDRAW -->
<svg xmlns="http://www.w3.org/2000/svg" xml:space="preserve" width="44mm" height="18mm" style="shape-rendering:geometricPrecision; text-rendering:geometricPrecision; image-rendering:optimizeQuality; fill-rule:evenodd; clip-rule:evenodd"
viewBox="0 0 44 18"
 xmlns:xlink="http://www.w3.org/1999/xlink">
 <defs>
  <style type="text/css">
   <![CDATA[
    .fil0 {fill:#252422}
    .fil1 {fill:#FEFEFE}
   ]]>
  </style>
 </defs>
 <g id="Réteg_x0020_1">
  <metadata id="CorelCorpID_0Corel-Layer"/>
  <g id="_375065880">
   <g>
    <g>
     <path id="_375686096" class="fil0" d="M25.1734 10.3172l0 0c-0.0666,0.0396 -0.118,0.1047 -0.1386,0.1857 -0.0205,0.0809 -0.0063,0.1627 0.0332,0.2291 0.0396,0.0666 0.1045,0.118 0.1856,0.1386 0.081,0.0206 0.1627,0.0064 0.2292,-0.033l-0.0001 -0.0003c0.0666,-0.0395 0.1181,-0.1045 0.1387,-0.1854 0.0206,-0.081 0.0064,-0.1628 -0.0333,-0.2293 -0.0395,-0.0665 -0.1045,-0.1179 -0.1856,-0.1385 -0.0809,-0.0206 -0.1626,-0.0064 -0.2291,0.0332l0 -0.0001zm-0.1252 -0.5117l6.1855 1.3857c0.896,0.2007 0.3461,1.8835 -0.4229,1.6649l-6.097 -1.7341c-0.6167,-0.1753 -0.3335,-1.466 0.3344,-1.3165z"/>
     <path id="_375685952" class="fil0" d="M35.5845 11.8205l0 0c-1.2603,0.1568 -2.7606,0.3435 -4.6518,0.1804 1.7398,0.759 2.9692,1.639 4.0018,2.3783 0.9684,0.6932 1.7626,1.2617 2.6379,1.4841 1.0295,0.2614 2.0971,0.3663 2.9139,0.15 0.6594,-0.1748 1.1548,-0.5611 1.3294,-1.2483 0.1746,-0.6871 -0.0763,-1.2631 -0.5727,-1.7313 -0.6145,-0.5799 -1.6028,-0.9971 -2.6322,-1.2587 -0.8753,-0.2223 -1.8445,-0.1017 -3.0263,0.0455zm-5.0585 0.0115c2.0764,0.2306 3.697,0.0288 5.0427,-0.1386 1.1952,-0.1489 2.1755,-0.271 3.0737,-0.0427 1.0476,0.266 2.0561,0.6932 2.6885,1.2899 0.5296,0.4999 0.797,1.1169 0.6093,1.8561 -0.1877,0.739 -0.7172,1.1537 -1.4212,1.3402 -0.8405,0.2227 -1.9305,0.1169 -2.9783,-0.1492 -0.898,-0.2281 -1.7013,-0.8032 -2.6806,-1.5043 -1.1027,-0.7894 -2.4306,-1.74 -4.3654,-2.5284l-0.4264 -0.1737 0.4577 0.0507z"/>
     <path id="_375685592" class="fil0" d="M35.9177 12.508l0 0c-1.0662,-0.0087 -2.3254,-0.0189 -3.9191,-0.2365 1.5042,0.5694 2.6158,1.1613 3.557,1.6624l0.0003 0.0001c0.9297,0.4951 1.6922,0.9012 2.5021,1.1069 0.951,0.2416 1.9235,0.3921 2.6434,0.3291 0.5713,-0.05 0.979,-0.2339 1.0758,-0.6148 0.0967,-0.3809 -0.1736,-0.737 -0.6521,-1.0536 -0.6024,-0.3988 -1.5291,-0.7307 -2.48,-0.9722 -0.8098,-0.2057 -1.6738,-0.2127 -2.7271,-0.2213l-0.0003 -0.0001zm-4.5312 -0.4578c1.8915,0.3084 3.3343,0.3202 4.5325,0.3299l0 -0.0001c1.0625,0.0087 1.934,0.0159 2.7575,0.2251 0.9628,0.2444 1.903,0.5819 2.5192,0.9898 0.5246,0.3472 0.8185,0.7482 0.7059,1.192 -0.1128,0.4438 -0.5625,0.6558 -1.1892,0.7105 -0.7362,0.0645 -1.7235,-0.0877 -2.6859,-0.3321 -0.8237,-0.2092 -1.5931,-0.6189 -2.531,-1.1182l0.0001 -0.0001c-1.0577,-0.5632 -2.3312,-1.2413 -4.1405,-1.8729l-0.694 -0.2423 0.7254 0.1184z"/>
     <path id="_375686408" class="fil0" d="M35.8035 12.9254l0 0c-0.8985,-0.1234 -1.9387,-0.2662 -3.2303,-0.508 1.2503,0.404 2.2327,0.7749 3.0811,1.0952 0.9651,0.3643 1.7565,0.6632 2.5709,0.87 0.9546,0.2425 1.9186,0.4427 2.6101,0.5049 0.5394,0.0486 0.9033,0.0194 0.9419,-0.1323 0.0385,-0.1517 -0.2673,-0.3508 -0.7646,-0.5657 -0.6373,-0.2754 -1.5801,-0.5593 -2.5347,-0.8018 -0.8145,-0.2068 -1.6525,-0.3219 -2.6744,-0.4623zm-4.4141 -0.8746c1.8697,0.3959 3.2695,0.5882 4.4318,0.7478 1.0269,0.1411 1.8691,0.2566 2.6884,0.4647 0.9587,0.2435 1.9079,0.5298 2.5535,0.8087 0.5584,0.2412 0.8962,0.4876 0.8385,0.7149 -0.0578,0.2271 -0.4721,0.2824 -1.078,0.2281 -0.7004,-0.063 -1.6711,-0.2645 -2.63,-0.508 -0.8191,-0.2081 -1.6145,-0.5083 -2.5843,-0.8745 -1.0976,-0.4143 -2.4194,-0.9133 -4.2513,-1.4577l0.0314 -0.124z"/>
     <path id="_375686384" class="fil0" d="M33.6963 13.7293c-0.0156,0.0612 -0.0778,0.0982 -0.1391,0.0826 -0.0611,-0.0155 -0.0981,-0.0777 -0.0826,-0.1388l0.4899 -1.9287c0.0155,-0.0614 0.0777,-0.0983 0.1389,-0.0827 0.0612,0.0155 0.0982,0.0777 0.0828,0.139l-0.4899 1.9286z"/>
    </g>
    <g>
     <polygon id="_373911360" class="fil0" points="36.1145,5.0293 36.2891,5.7729 26.8084,8.0006 26.6336,7.2571 "/>
     <path id="_373911024" class="fil0" d="M25.4385 7.9303l0 0c-0.0391,-0.1669 -0.1888,-0.2744 -0.3347,-0.2402 -0.1456,0.0343 -0.2317,0.1972 -0.1925,0.3641 0.0393,0.1668 0.189,0.2743 0.3345,0.2401 0.1456,-0.0343 0.2319,-0.1972 0.1927,-0.364zm6.6275 -1.5574l0 0c0.093,0.3961 -0.1136,0.7869 -0.4594,0.8681l-6.5861 1.5474c-0.3457,0.0814 -0.7049,-0.1763 -0.798,-0.5724 -0.093,-0.3962 0.1138,-0.7869 0.4596,-0.8682l6.586 -1.5474c0.3458,-0.0815 0.7049,0.1763 0.7979,0.5725z"/>
     <path id="_373911288" class="fil0" d="M39.0236 7.9893l0 0c1.7016,-0.3998 2.757,-2.1034 2.3571,-3.8053 -0.3998,-1.7016 -2.1035,-2.7569 -3.8052,-2.357 -1.7016,0.3997 -2.757,2.1034 -2.3572,3.8051 0.3998,1.7018 2.1035,2.757 3.8053,2.3572zm-1.8808 -0.9171l0 0c0.0282,0.1189 -0.0456,0.2379 -0.1646,0.2659 -0.1187,0.0279 -0.2378,-0.0459 -0.2659,-0.1647 -0.0279,-0.119 0.046,-0.238 0.1648,-0.2659 0.1188,-0.0279 0.2379,0.0457 0.2657,0.1647zm0.8968 -0.2108l0 0c0.0278,0.119 -0.0459,0.238 -0.1648,0.266 -0.1189,0.0279 -0.2379,-0.0457 -0.2657,-0.1648 -0.028,-0.1188 0.0456,-0.2378 0.1646,-0.2657 0.1189,-0.028 0.238,0.0457 0.2659,0.1645zm0.8965 -0.2106l0 0c0.0279,0.1188 -0.0457,0.238 -0.1646,0.2659 -0.1189,0.028 -0.238,-0.0458 -0.2658,-0.1648 -0.0279,-0.1189 0.0458,-0.2379 0.1647,-0.2657 0.1189,-0.028 0.2378,0.0457 0.2657,0.1646zm0.8967 -0.2107l0 0c0.0281,0.1189 -0.0457,0.238 -0.1648,0.2659 -0.1186,0.0279 -0.2377,-0.0459 -0.2657,-0.1648 -0.028,-0.1188 0.0457,-0.2377 0.1646,-0.2658 0.1189,-0.0278 0.238,0.0458 0.2659,0.1647zm0.8968 -0.2107l0 0c0.0277,0.1189 -0.046,0.2381 -0.1649,0.2659 -0.1189,0.028 -0.2377,-0.0459 -0.2657,-0.1648 -0.028,-0.1188 0.0456,-0.2378 0.1646,-0.2658 0.1189,-0.028 0.2379,0.0458 0.266,0.1647zm-3.7975 -0.0537l0 0c0.0281,0.1187 -0.0457,0.2378 -0.1644,0.2657 -0.119,0.028 -0.2381,-0.0457 -0.2661,-0.1646 -0.0278,-0.1189 0.0459,-0.238 0.1648,-0.2658 0.1189,-0.028 0.2379,0.0457 0.2657,0.1647zm0.8967 -0.2109l0 0c0.028,0.1191 -0.0457,0.238 -0.1647,0.266 -0.1187,0.0279 -0.2377,-0.046 -0.2658,-0.1648 -0.0278,-0.1188 0.0458,-0.2378 0.1647,-0.2658 0.1189,-0.0279 0.2378,0.0459 0.2658,0.1646zm0.8967 -0.2107l0 0c0.0279,0.119 -0.0458,0.238 -0.1649,0.2661 -0.1187,0.0278 -0.2377,-0.0459 -0.2656,-0.1648 -0.028,-0.119 0.0458,-0.2379 0.1646,-0.2658 0.1189,-0.028 0.238,0.0457 0.2659,0.1645zm0.8965 -0.2106l0 0c0.0281,0.1189 -0.0457,0.238 -0.1647,0.2658 -0.1187,0.0279 -0.2377,-0.0458 -0.2658,-0.1647 -0.0278,-0.1189 0.0458,-0.2378 0.1648,-0.2657 0.1189,-0.0282 0.2379,0.0456 0.2657,0.1646zm0.8968 -0.2107l0 0c0.028,0.1189 -0.0458,0.238 -0.1648,0.2658 -0.1188,0.028 -0.2377,-0.0458 -0.2657,-0.1647 -0.0279,-0.1189 0.0457,-0.2377 0.1644,-0.2656 0.1191,-0.0281 0.2382,0.0456 0.2661,0.1645zm-3.7974 -0.0538l0 0c0.028,0.1189 -0.0457,0.2378 -0.1646,0.2659 -0.1189,0.0279 -0.238,-0.0459 -0.2659,-0.1647 -0.0278,-0.1191 0.046,-0.238 0.1648,-0.266 0.119,-0.0279 0.238,0.0459 0.2657,0.1648zm0.8967 -0.2106l0 0c0.0281,0.1187 -0.0457,0.2378 -0.1645,0.2657 -0.1189,0.0279 -0.238,-0.0458 -0.2659,-0.1646 -0.0279,-0.119 0.0458,-0.238 0.1647,-0.2659 0.1189,-0.028 0.2379,0.0457 0.2657,0.1648zm0.8967 -0.2108l0 0c0.0278,0.1188 -0.0458,0.2378 -0.1647,0.2658 -0.1187,0.0279 -0.2379,-0.0459 -0.2658,-0.1646 -0.0279,-0.119 0.0457,-0.2379 0.1645,-0.2659 0.1191,-0.0279 0.2381,0.0457 0.266,0.1647zm0.8967 -0.2108l0 0c0.0278,0.1189 -0.0459,0.238 -0.1648,0.266 -0.1189,0.0279 -0.238,-0.0458 -0.2657,-0.1647 -0.0281,-0.119 0.0458,-0.238 0.1646,-0.2659 0.119,-0.0279 0.2379,0.0457 0.2659,0.1646zm0.8967 -0.2105l0 0c0.0279,0.1187 -0.0459,0.2378 -0.1649,0.2657 -0.1187,0.0279 -0.2378,-0.0458 -0.2658,-0.1647 -0.0278,-0.1188 0.0457,-0.2379 0.1647,-0.2658 0.119,-0.028 0.238,0.0458 0.266,0.1648zm-3.7974 -0.054l0 0c0.0279,0.1188 -0.0457,0.2379 -0.1646,0.2659 -0.1189,0.0278 -0.238,-0.0457 -0.2658,-0.1648 -0.028,-0.1189 0.0457,-0.2378 0.1646,-0.2658 0.1189,-0.028 0.2378,0.0458 0.2658,0.1647zm0.8966 -0.2107l0 0c0.028,0.1189 -0.0457,0.2379 -0.1645,0.2659 -0.1189,0.0278 -0.2379,-0.0458 -0.266,-0.1646 -0.028,-0.119 0.0459,-0.2381 0.1646,-0.266 0.1192,-0.028 0.238,0.0459 0.2659,0.1647zm0.8968 -0.2106l0 0c0.028,0.1187 -0.0459,0.2379 -0.1648,0.2658 -0.1189,0.0279 -0.2378,-0.0459 -0.2658,-0.1647 -0.028,-0.1189 0.0458,-0.2379 0.1646,-0.2659 0.119,-0.0279 0.2379,0.0458 0.266,0.1648zm0.8966 -0.2107l0 0c0.0279,0.1187 -0.0457,0.2379 -0.1648,0.2658 -0.1189,0.0279 -0.2377,-0.0459 -0.2657,-0.1647 -0.0279,-0.1189 0.0458,-0.2379 0.1646,-0.2659 0.1189,-0.0279 0.2378,0.0458 0.2659,0.1648zm0.8966 -0.2107l0 0c0.0279,0.1187 -0.0458,0.2379 -0.1648,0.2659 -0.1187,0.0278 -0.2378,-0.0459 -0.2658,-0.1647 -0.0279,-0.1191 0.0459,-0.238 0.1646,-0.2659 0.1191,-0.028 0.238,0.0458 0.266,0.1647zm-3.7972 -0.054l0 0c0.0278,0.1189 -0.0458,0.2381 -0.1647,0.266 -0.1189,0.0278 -0.2379,-0.0459 -0.2659,-0.1646 -0.0279,-0.119 0.0457,-0.238 0.1647,-0.2661 0.1188,-0.0278 0.2379,0.0459 0.2659,0.1647zm0.8967 -0.2106l0 0c0.0277,0.1189 -0.0458,0.2378 -0.1647,0.2658 -0.1191,0.028 -0.238,-0.0457 -0.2659,-0.1646 -0.028,-0.1191 0.0458,-0.2379 0.1648,-0.2659 0.1188,-0.0279 0.2377,0.0457 0.2658,0.1647zm0.8965 -0.2107l0 0c0.028,0.1189 -0.0458,0.2379 -0.1647,0.2658 -0.1189,0.0279 -0.2377,-0.0457 -0.2659,-0.1646 -0.0278,-0.119 0.046,-0.2379 0.1648,-0.2659 0.1189,-0.028 0.2379,0.0458 0.2658,0.1647zm0.8966 -0.2107l0 0c0.028,0.1188 -0.0457,0.2379 -0.1647,0.2658 -0.1188,0.028 -0.2378,-0.0457 -0.2658,-0.1646 -0.028,-0.1189 0.0457,-0.2378 0.1647,-0.2659 0.1189,-0.0279 0.2381,0.0458 0.2658,0.1647zm0.8968 -0.2106c0.0278,0.1188 -0.0457,0.2378 -0.1647,0.2657 -0.119,0.028 -0.2381,-0.0457 -0.266,-0.1646 -0.0279,-0.119 0.0459,-0.238 0.1647,-0.2659 0.119,-0.0279 0.238,0.0459 0.266,0.1648z"/>
    </g>
   </g>
   <g>
    <path id="_373910976" class="fil0" d="M2.8582 9.0899l0 0c0.0014,0.1988 0.1637,0.3587 0.3626,0.3574 0.1986,-0.0017 0.3586,-0.1639 0.3572,-0.3626 -0.0015,-0.1989 -0.1638,-0.3588 -0.3626,-0.3574 -0.1988,0.0015 -0.3587,0.1639 -0.3572,0.3626zm-0.8511 0.4733l-0.0068 -0.9314c-0.004,-0.5365 0.4303,-0.9772 0.9667,-0.9813 0.2299,-0.0016 1.1586,0.0959 2.1742,0.0979 1.2823,0.0023 3.0423,0.2619 3.2448,-1.3809l0.2145 -1.7398c0.0602,-0.4882 0.4719,-0.9206 0.9594,-0.8549 4.1595,0.5618 6.8208,0.3424 11.3249,-0.0841 0.5339,-0.0506 0.9772,0.4305 0.9812,0.9668l0.0639 8.5882c0.004,0.5364 -0.4318,1.0228 -0.9668,0.9811 -4.582,-0.3562 -6.7617,-0.469 -11.3248,0.0843 -0.4885,0.0591 -0.9047,-0.3532 -0.9721,-0.8405l-0.2687 -1.9403c-0.1866,-1.3491 -2.0248,-1.1991 -3.1704,-1.1809 -1.0361,0.0165 -2.0047,0.1809 -2.2386,0.1825 -0.5366,0.0042 -0.9773,-0.4303 -0.9814,-0.9667z"/>
    <path id="_373911144" class="fil1" d="M8.8086 10.2943c-0.248,-0.0763 -0.3869,-0.3392 -0.3107,-0.5872 0.0511,-0.166 0.1858,-0.2831 0.3435,-0.3196 0.0626,0.0737 0.1463,0.1311 0.2454,0.1616 0.0798,0.0247 0.1607,0.0291 0.2376,0.0165 0.0856,0.1159 0.1171,0.2697 0.0715,0.4181 -0.0764,0.2479 -0.3392,0.387 -0.5873,0.3106z"/>
    <path id="_372767688" class="fil1" d="M10.272 9.8576c-0.1566,0.2068 -0.4513,0.2475 -0.658,0.0912 -0.1326,-0.1004 -0.1967,-0.257 -0.185,-0.4112 0.1451,-0.0556 0.2641,-0.1751 0.3133,-0.3354 0.0079,-0.0256 0.0137,-0.0516 0.0176,-0.0773 0.1392,-0.0426 0.296,-0.02 0.4209,0.0746 0.207,0.1566 0.2477,0.4511 0.0912,0.6581z"/>
    <path id="_375066120" class="fil1" d="M10.3483 8.3322c0.1409,0.2177 0.0785,0.5087 -0.1394,0.6497 -0.1377,0.0888 -0.3044,0.0968 -0.4441,0.0353 -0.0108,-0.1814 -0.116,-0.3481 -0.2807,-0.434 0.0014,-0.1526 0.077,-0.3014 0.2147,-0.3904 0.2177,-0.1411 0.5086,-0.0785 0.6495,0.1394z"/>
    <path id="_375065736" class="fil1" d="M8.9381 7.7852c0.253,-0.0579 0.505,0.1002 0.5628,0.3531 0.0352,0.154 -0.0094,0.3075 -0.1069,0.4173 -0.1877,-0.0546 -0.3819,0.0007 -0.5129,0.1287 -0.144,-0.0531 -0.2593,-0.1756 -0.2962,-0.3364 -0.0579,-0.2529 0.1003,-0.5049 0.3532,-0.5627z"/>
    <path id="_375066000" class="fil1" d="M7.9229 8.9304c0.032,-0.2575 0.2669,-0.4402 0.5245,-0.4079 0.1554,0.0194 0.2836,0.1126 0.3537,0.2403 -0.0258,0.0397 -0.0465,0.0835 -0.0611,0.1308 -0.0397,0.1293 -0.0272,0.262 0.0258,0.3757 -0.0978,0.1309 -0.2611,0.2072 -0.435,0.1854 -0.2573,-0.0321 -0.44,-0.2669 -0.4079,-0.5243z"/>
   </g>
  </g>
 </g>
</svg>
