<?xml version="1.0" encoding="UTF-8"?>
<!DOCTYPE svg PUBLIC "-//W3C//DTD SVG 1.1//EN" "http://www.w3.org/Graphics/SVG/1.1/DTD/svg11.dtd">
<!-- Creator: CorelDRAW -->
<svg xmlns="http://www.w3.org/2000/svg" xml:space="preserve" width="30mm" height="20mm" style="shape-rendering:geometricPrecision; text-rendering:geometricPrecision; image-rendering:optimizeQuality; fill-rule:evenodd; clip-rule:evenodd"
viewBox="0 0 30 20"
 xmlns:xlink="http://www.w3.org/1999/xlink">
 <defs>
  <style type="text/css">
   <![CDATA[
    .fil0 {fill:#252422}
    .fil1 {fill:#FEFEFE}
   ]]>
  </style>
 </defs>
 <g id="Réteg_x0020_1">
  <metadata id="CorelCorpID_0Corel-Layer"/>
  <g id="_45829864">
   <path id="_45830176" class="fil0" d="M3.0935 8.1627l0 0c0.0004,0.2383 0.0984,0.4549 0.2562,0.6122 0.1574,0.1571 0.3746,0.2542 0.6129,0.254l2.5423 -0.0043 -0.0029 -1.7353 -2.5423 0.0042c-0.2383,0.0003 -0.455,0.0986 -0.6122,0.2563 -0.1572,0.1575 -0.2545,0.3745 -0.254,0.6129zm-0.5935 0.001l0.0002 -0.0001c-0.0007,-0.4021 0.1629,-0.7677 0.4271,-1.0327 0.2643,-0.2652 0.6292,-0.43 1.0313,-0.4307l2.839 -0.0048 0.2967 -0.0004 0.0005 0.2967 0.004 2.3287 0.0005 0.2965 -0.2967 0.0005 -2.8391 0.0048c-0.4019,0.0007 -0.7675,-0.1629 -1.0327,-0.4271 -0.2651,-0.2643 -0.4301,-0.6295 -0.4308,-1.0314z"/>
   <path id="_45830392" class="fil0" d="M16.7068 2.8607l0 0 -3.9771 0.0068c-0.3211,0.0005 -0.6129,0.1326 -0.8244,0.3448 -0.2116,0.2123 -0.3427,0.5046 -0.3422,0.8257l0.0019 1.1684 6.3143 -0.0104 -0.0019 -1.1686c-0.0005,-0.321 -0.1327,-0.613 -0.3449,-0.8245 -0.2123,-0.2117 -0.5045,-0.3426 -0.8257,-0.3422zm-3.978 -0.5865l3.977 -0.0068c0.485,-0.0006 0.9258,0.1967 1.2456,0.5153 0.3195,0.3187 0.5185,0.759 0.5193,1.2437l0.0024 1.4653 0.0005 0.2965 -0.2966 0.0004 -6.9076 0.0116 -0.2966 0.0006 -0.0006 -0.2966 -0.0024 -1.4653c-0.0009,-0.4847 0.1965,-0.9256 0.5153,-1.2454 0.3186,-0.3198 0.7589,-0.5186 1.2437,-0.5193z"/>
   <path id="_45830248" class="fil0" d="M23.1146 5.4449c-1.3449,-0.5042 -4.5961,-0.8559 -8.3934,-0.8495 -3.7975,0.0062 -7.0475,0.3689 -8.3905,0.8774l-0.5827 0.001c-0.1727,0.0002 -0.3136,0.1418 -0.3133,0.3145 0.0003,0.1727 0.1418,0.3138 0.3145,0.3134l17.949 -0.0299c0.1728,-0.0004 0.3139,-0.1419 0.3135,-0.3146 -0.0002,-0.1726 -0.1418,-0.3138 -0.3145,-0.3134l-0.5826 0.0011z"/>
   <path id="_45830440" class="fil0" d="M5.9982 6.4313l17.4521 -0.0291 0.0164 9.8118c0.0014,0.8205 -0.6687,1.4926 -1.489,1.4939l-14.6784 0.0246c-0.7053,0.0012 -1.2832,-0.5748 -1.2844,-1.28l-0.0167 -10.0212z"/>
   <path id="_45830320" class="fil1" d="M11.6877 10.8265c0.187,-0.595 0.8212,-0.926 1.4163,-0.7389 0.3984,0.1252 0.6783,0.4506 0.7638,0.8306 -0.1783,0.1492 -0.3171,0.3497 -0.392,0.5877 -0.06,0.1911 -0.0723,0.3858 -0.0433,0.5711 -0.2799,0.2044 -0.6499,0.2778 -1.0058,0.1659 -0.5952,-0.1868 -0.9259,-0.821 -0.739,-1.4164z"/>
   <path id="_45829720" class="fil1" d="M12.7178 14.3513c-0.4953,-0.3792 -0.5894,-1.0883 -0.2102,-1.5838 0.2428,-0.317 0.6207,-0.4696 0.9913,-0.4388 0.1319,0.3496 0.4175,0.6373 0.8017,0.7582 0.0619,0.0193 0.1241,0.0337 0.186,0.0434 0.1004,0.3351 0.0439,0.712 -0.1852,1.011 -0.3793,0.4952 -1.0883,0.5892 -1.5836,0.21z"/>
   <path id="_45829624" class="fil1" d="M16.3845 14.5562c-0.526,0.3355 -1.2242,0.1815 -1.56,-0.3444 -0.212,-0.3322 -0.2286,-0.7334 -0.0792,-1.0685 0.4366,-0.0232 0.8388,-0.2739 1.0474,-0.669 0.3669,0.0057 0.7239,0.1895 0.9362,0.5218 0.3356,0.5258 0.1816,1.2243 -0.3444,1.5601z"/>
   <path id="_45829936" class="fil1" d="M17.7192 11.1727c0.1357,0.6093 -0.2479,1.2128 -0.857,1.3484 -0.3704,0.0825 -0.7389,-0.0272 -1.0013,-0.2632 0.1336,-0.4503 0.0035,-0.918 -0.3025,-1.2349 0.1296,-0.3456 0.4255,-0.6209 0.8128,-0.7072 0.6089,-0.1356 1.2125,0.2482 1.348,0.8569z"/>
   <path id="_45829888" class="fil1" d="M14.9797 8.7156c0.6186,0.0807 1.0548,0.6481 0.9738,1.2667 -0.0489,0.3735 -0.275,0.6805 -0.5829,0.8472 -0.0951,-0.0623 -0.2003,-0.1128 -0.314,-0.1485 -0.3101,-0.0976 -0.6297,-0.0688 -0.9036,0.0569 -0.3134,-0.237 -0.4943,-0.6309 -0.4397,-1.0485 0.0808,-0.6185 0.6479,-1.0545 1.2664,-0.9738z"/>
   <path id="_45829600" class="fil0" d="M26.9065 8.1474l0 0c-0.0003,0.2383 -0.0984,0.4549 -0.2561,0.6122 -0.1574,0.1571 -0.3746,0.2542 -0.6129,0.254l-2.5424 -0.0042 0.003 -1.7354 2.5423 0.0042c0.2383,0.0004 0.455,0.0986 0.6121,0.2563 0.1572,0.1576 0.2545,0.3746 0.254,0.6129zm0.5935 0.001l-0.0001 -0.0001c0.0007,-0.402 -0.1629,-0.7677 -0.4272,-1.0327 -0.2642,-0.2651 -0.6292,-0.43 -1.0313,-0.4307l-2.8389 -0.0048 -0.2967 -0.0004 -0.0005 0.2968 -0.004 2.3286 -0.0005 0.2966 0.2967 0.0004 2.839 0.0048c0.402,0.0007 0.7676,-0.1629 1.0327,-0.4271 0.2652,-0.2643 0.4302,-0.6295 0.4308,-1.0314z"/>
  </g>
 </g>
</svg>
